<?xml version="1.0" encoding="UTF-8" standalone="no"?>
<!-- Created with Inkscape (http://www.inkscape.org/) -->

<svg
   version="1.1"
   id="svg2"
   xml:space="preserve"
   width="29.862371"
   height="58.718678"
   viewBox="0 0 29.862371 58.718674"
   sodipodi:docname="border (copy).svg"
   inkscape:version="1.1.2 (0a00cf5339, 2022-02-04)"
   xmlns:inkscape="http://www.inkscape.org/namespaces/inkscape"
   xmlns:sodipodi="http://sodipodi.sourceforge.net/DTD/sodipodi-0.dtd"
   xmlns="http://www.w3.org/2000/svg"
   xmlns:svg="http://www.w3.org/2000/svg"><sodipodi:namedview
     id="namedview6"
     pagecolor="#ffffff"
     bordercolor="#666666"
     borderopacity="1.0"
     inkscape:pageshadow="2"
     inkscape:pageopacity="0.0"
     inkscape:pagecheckerboard="0"
     showgrid="false"
     inkscape:zoom="5.4686005"
     inkscape:cx="42.332586"
     inkscape:cy="37.761032"
     inkscape:window-width="1920"
     inkscape:window-height="1044"
     inkscape:window-x="0"
     inkscape:window-y="0"
     inkscape:window-maximized="1"
     inkscape:current-layer="svg2" /><defs
     id="defs6" /><g
     id="g8"
     transform="matrix(0,-1.2119844,1.2119844,0,-64.607171,350.97082)"><path
       d="m 265.35993,54.428153 c -1.094,0.004 -1.977,0.891 -1.977,1.977 0,1.09 0.883,1.973 1.977,1.977 1.093,-0.004 1.976,-0.887 1.976,-1.977 0,-1.086 -0.883,-1.973 -1.976,-1.977 z m -5.317,0.536 c -1.093,0.007 -1.976,0.89 -1.972,1.976 0.004,1.086 0.882,1.965 1.972,1.969 1.094,0 1.985,-0.879 1.985,-1.969 0.004,-1.09 -0.887,-1.976 -1.985,-1.976 z m 10.633,0 c -1.098,0 -1.988,0.886 -1.988,1.976 0.004,1.09 0.894,1.969 1.988,1.969 1.086,-0.004 1.969,-0.883 1.973,-1.969 0.004,-1.086 -0.883,-1.973 -1.973,-1.976 z m -15.305,2.015 c -0.996,0 -1.8,0.801 -1.8,1.789 -0.004,0.992 0.8,1.801 1.8,1.801 0.997,0 1.801,-0.809 1.797,-1.801 0,-0.988 -0.804,-1.789 -1.797,-1.789 z m 19.977,0 c -0.992,0 -1.797,0.801 -1.797,1.789 -0.008,0.992 0.801,1.801 1.797,1.801 1,0 1.805,-0.809 1.801,-1.801 0,-0.988 -0.805,-1.789 -1.801,-1.789 z m -8.234,2.18 c -0.153,0 -0.547,0.25 -0.883,0.562 -0.508,0.469 -0.715,0.532 -1.195,0.352 -0.321,-0.121 -0.586,-0.324 -0.586,-0.453 0,-0.418 -0.879,-0.25 -1.352,0.258 -0.258,0.273 -0.477,0.777 -0.477,1.117 0,0.34 -0.054,0.781 -0.128,0.976 -0.176,0.457 -0.747,0.469 -0.918,0.02 -0.188,-0.488 -1.317,-0.422 -1.801,0.113 -0.621,0.68 -0.59,2.324 0.058,3.008 0.282,0.301 0.516,0.633 0.52,0.75 0.004,0.113 0.312,0.512 0.687,0.875 0.371,0.363 0.676,0.777 0.676,0.922 0,0.144 0.258,0.508 0.567,0.797 0.507,0.476 0.617,0.496 1.261,0.23 0.59,-0.242 0.766,-0.246 1.02,0.016 0.379,0.394 0.617,2.879 0.363,3.758 l -0.187,0.648 -0.243,-0.562 c -2.96,-3.184 -4.863,-5.653 -9.625,-5.653 -2.57,0 -4.156,0.574 -4.972,1.211 -1.09,0.844 -2.129,2.207 -2.348,3.074 -0.598,2.364 0.695,4.989 2.274,4.625 1.761,-0.406 2.671,-1.671 1.964,-2.742 -0.402,-0.613 -1.156,-0.679 -1.336,-0.121 -0.07,0.219 -0.335,0.52 -0.582,0.676 -0.386,0.238 -0.793,0.351 -0.91,-0.211 -0.125,-0.602 -0.246,-2.148 0.899,-2.91 0.316,-0.207 1.539,-0.504 2.207,-0.184 0.609,0.293 0.64,0.391 0.64,1.782 0,0.937 0.27,1.757 1.024,2.437 1.668,1.516 2.59,2.207 4.656,1.965 1.902,-0.223 2.93,-1.121 3.234,-2.77 0.192,-1.019 0.008,-1.632 0.325,-1.632 0.105,0 0.504,0.253 0.882,0.57 0.821,0.687 1.582,2.172 1.688,3.281 0.066,0.672 0.172,0.805 0.707,0.867 0.816,0.094 1.262,-0.297 1.195,-1.054 -0.09,-0.977 1.164,-2.7 2.45,-3.368 l 0.656,-0.343 -0.11,0.757 c -0.144,0.977 0.571,2.364 1.512,2.938 0.969,0.586 3.274,0.59 4.426,0 0.465,-0.242 1.351,-0.895 1.973,-1.453 1.089,-0.969 0.789,-1.106 1.14,-2.223 0.266,-0.828 -0.055,-2.32 1.875,-2.14 1.121,0.101 1.852,0.671 2.031,1.632 0.137,0.711 0.079,0.903 -0.378,1.274 -0.54,0.433 -0.543,0.429 -1.012,-0.156 -0.258,-0.325 -0.59,-0.582 -0.735,-0.582 -0.496,0 -0.972,0.71 -0.972,1.449 0,1.109 0.648,1.726 1.828,1.726 0.801,0 1.101,-0.136 1.695,-0.746 0.653,-0.668 1.352,-2.039 1.141,-2.246 -0.043,-0.043 -0.125,-0.344 -0.184,-0.656 -0.379,-2.067 -2.152,-3.824 -4.508,-4.457 -0.972,-0.262 -3.839,-0.856 -5.546,-0.094 -1.707,0.766 -4.442,2.566 -6.594,4.902 l -1.051,1.137 v -2.41 c -0.004,-1.887 0.063,-2.441 0.316,-2.539 0.18,-0.07 0.45,0.019 0.602,0.203 0.187,0.219 0.617,0.32 1.281,0.277 0.942,-0.058 1.008,-0.113 1.223,-0.906 0.129,-0.461 0.469,-1.129 0.762,-1.476 1.582,-1.887 1.675,-3.809 0.23,-4.754 -0.418,-0.278 -0.551,-0.254 -1.109,0.183 -0.617,0.485 -0.645,0.485 -0.95,0.074 -0.171,-0.234 -0.312,-0.683 -0.312,-1.007 0,-0.664 -0.574,-1.594 -0.984,-1.594 z m -15.676,0.719 c -0.856,0 -1.551,0.691 -1.551,1.543 0,0.851 0.695,1.539 1.551,1.539 0.855,0 1.547,-0.688 1.547,-1.539 0,-0.852 -0.692,-1.543 -1.547,-1.543 z m 27.844,0 c -0.856,0 -1.547,0.691 -1.547,1.543 0,0.851 0.691,1.539 1.547,1.539 0.855,0 1.55,-0.688 1.55,-1.539 0,-0.852 -0.695,-1.543 -1.55,-1.543 z m -13.59,3.324 c 0.468,0.004 0.937,0.265 1.437,1.015 0.539,0.801 0.641,1.426 0.301,1.965 -0.184,0.285 -0.27,0.27 -0.641,-0.062 -0.593,-0.535 -1.914,-0.492 -2.644,0.082 -0.328,0.258 -0.699,0.41 -0.824,0.332 v -0.008 c -0.621,-0.383 -0.02,-2.281 0.965,-2.816 0.476,-0.262 0.941,-0.516 1.406,-0.508 z m -17.262,0.203 c -0.773,0 -1.398,0.625 -1.398,1.395 0,0.769 0.625,1.394 1.398,1.394 0.773,0 1.402,-0.625 1.402,-1.394 0,-0.77 -0.629,-1.395 -1.402,-1.395 z m 33.859,0 c -0.777,0 -1.402,0.625 -1.402,1.395 0,0.769 0.625,1.394 1.402,1.394 0.774,0 1.399,-0.625 1.399,-1.394 0,-0.77 -0.625,-1.395 -1.399,-1.395 z m -35.879,3.453 c -0.671,0 -1.214,0.543 -1.214,1.207 0,0.668 0.543,1.211 1.214,1.211 0.668,0 1.215,-0.543 1.215,-1.211 0,-0.664 -0.547,-1.207 -1.215,-1.207 z m 37.899,0 c -0.672,0 -1.215,0.543 -1.215,1.207 0,0.668 0.543,1.211 1.215,1.211 0.672,0 1.215,-0.543 1.215,-1.211 0,-0.664 -0.543,-1.207 -1.215,-1.207 z m -10.352,2.981 c 0.227,0.011 0.301,0.062 0.168,0.121 -0.172,0.07 -0.183,0.465 -0.027,1.312 0.188,1.024 0.164,1.352 -0.203,2.094 -0.375,0.769 -0.535,0.887 -1.25,0.906 -0.453,0.012 -0.977,-0.094 -1.16,-0.23 -0.184,-0.137 -0.383,-0.407 -0.446,-0.594 -0.168,-0.496 0.133,-1.953 0.493,-2.379 0.402,-0.488 1.914,-1.254 2.429,-1.23 z m -28.808,0.148 c -0.653,0.004 -1.184,0.531 -1.18,1.184 0.004,0.644 0.527,1.168 1.18,1.172 0.648,-0.004 1.176,-0.528 1.176,-1.172 0.003,-0.653 -0.524,-1.18 -1.176,-1.184 z m 40.422,0 c -0.653,0.004 -1.18,0.531 -1.176,1.184 0,0.644 0.527,1.168 1.176,1.172 0.648,-0.004 1.175,-0.528 1.179,-1.172 0.004,-0.653 -0.527,-1.18 -1.179,-1.184 z m -28.2,0.285 c 0.247,0 0.508,0.11 0.586,0.231 0.079,0.125 0.282,0.222 0.453,0.222 0.54,0 1.696,1.231 1.829,1.942 0.187,0.992 -0.547,2.05 -1.52,2.195 -1.023,0.152 -1.25,0.043 -1.586,-0.805 -0.16,-0.394 -0.324,-0.773 -0.363,-0.84 -0.039,-0.066 0.019,-0.218 0.14,-0.339 0.293,-0.297 0.493,-2.153 0.231,-2.153 -0.113,0 -0.211,-0.097 -0.211,-0.222 0,-0.121 0.199,-0.231 0.445,-0.231 z m -12.742,2.512 c -0.57,0 -1.031,0.461 -1.031,1.027 0,0.567 0.461,1.024 1.031,1.024 0.567,0 1.028,-0.457 1.028,-1.024 0,-0.566 -0.461,-1.027 -1.028,-1.027 z m 41.461,0 c -0.566,0 -1.031,0.461 -1.027,1.027 -0.004,0.567 0.461,1.024 1.027,1.024 0.57,0 1.031,-0.457 1.031,-1.024 0,-0.566 -0.461,-1.027 -1.031,-1.027 z m -41.871,2.633 c -0.484,0 -0.879,0.16 -0.879,0.644 0,0.485 0.395,0.645 0.879,0.649 0.492,0.004 0.891,-0.16 0.891,-0.649 0,-0.484 -0.399,-0.648 -0.891,-0.644 z m 42.281,0 c -0.492,-0.004 -0.89,0.16 -0.89,0.644 0,0.489 0.398,0.653 0.89,0.649 0.485,-0.004 0.879,-0.164 0.879,-0.649 0,-0.484 -0.394,-0.644 -0.879,-0.644 z"
       style="fill:#000000;fill-opacity:1;fill-rule:nonzero;stroke:none"
       id="path80" /></g></svg>
