<?xml version="1.0" encoding="UTF-8" standalone="no"?>
<!-- Created with Inkscape (http://www.inkscape.org/) -->

<svg
   version="1.1"
   id="svg2"
   xml:space="preserve"
   width="56.947014"
   height="57.753216"
   viewBox="0 0 56.947014 57.753213"
   sodipodi:docname="border-corner.svg"
   inkscape:version="1.1.2 (0a00cf5339, 2022-02-04)"
   xmlns:inkscape="http://www.inkscape.org/namespaces/inkscape"
   xmlns:sodipodi="http://sodipodi.sourceforge.net/DTD/sodipodi-0.dtd"
   xmlns="http://www.w3.org/2000/svg"
   xmlns:svg="http://www.w3.org/2000/svg"><sodipodi:namedview
     id="namedview7"
     pagecolor="#ffffff"
     bordercolor="#666666"
     borderopacity="1.0"
     inkscape:pageshadow="2"
     inkscape:pageopacity="0.0"
     inkscape:pagecheckerboard="0"
     showgrid="false"
     inkscape:zoom="11.497195"
     inkscape:cx="28.485208"
     inkscape:cy="52.534552"
     inkscape:window-width="1832"
     inkscape:window-height="837"
     inkscape:window-x="-257"
     inkscape:window-y="380"
     inkscape:window-maximized="0"
     inkscape:current-layer="svg2" /><defs
     id="defs6" /><g
     id="g8"
     transform="matrix(1.2095535,0,0,1.2095535,88.349888,-34.878537)"><g
       id="g10"><path
         d="m -54.26911,72.875339 c 0.211,-1.063 0.437,-1.207 1.402,-0.91 0.688,0.211 0.895,0.195 1.207,-0.09 0.348,-0.316 0.407,-0.305 0.621,0.101 0.282,0.52 0.313,1.075 0.075,1.219 -0.09,0.051 -0.907,0.172 -1.809,0.258 l -1.644,0.164 z m 3.16,-0.582 c -0.223,-0.227 -0.41,0.113 -0.226,0.414 0.14,0.226 0.195,0.226 0.269,0 0.051,-0.152 0.031,-0.34 -0.043,-0.414 z m -5.683,0.496 c -0.45,-0.477 -0.485,-0.633 -0.266,-1.109 0.367,-0.813 1.637,-0.797 2.012,0.023 0.218,0.477 0.203,0.68 -0.082,1.109 -0.446,0.68 -1.012,0.672 -1.664,-0.023 z m -2.95,-1.039 c -0.922,-0.5 -1.054,-1.008 -0.402,-1.567 1.016,-0.867 2.656,-0.105 2.355,1.094 -0.265,1.055 -0.687,1.16 -1.953,0.473 z m -2.832,-1.231 c -0.554,-0.203 -1.332,-1.007 -1.332,-1.382 0,-0.473 0.895,-1.504 1.446,-1.661 0.593,-0.171 1.886,0.633 1.886,1.172 0,0.524 -0.539,1.586 -0.929,1.836 -0.329,0.207 -0.579,0.215 -1.071,0.035 z m 6.446,-0.668 c -1.207,-0.574 -2.825,-2.418 -3.356,-3.824 -0.402,-1.058 -0.449,-1.527 -0.336,-3.238 0.168,-2.453 0.406,-3.352 1.153,-4.344 0.316,-0.422 0.656,-0.969 0.753,-1.215 0.336,-0.843 2.008,-2.765 2.731,-3.132 0.394,-0.204 0.769,-0.438 0.832,-0.516 0.059,-0.082 0.586,-0.422 1.164,-0.758 0.582,-0.336 1.059,-0.699 1.059,-0.812 0,-0.239 -1.766,-0.758 -1.95,-0.571 -0.066,0.067 -0.261,0.008 -0.433,-0.136 -0.449,-0.375 -2.387,-0.27 -3.051,0.164 -0.652,0.429 -0.703,0.691 -0.227,1.214 0.188,0.208 0.426,0.68 0.532,1.051 0.226,0.789 -0.102,1.391 -1.477,2.711 -1.262,1.215 -2.058,1.567 -3.558,1.567 -1.18,0 -1.329,0.054 -1.657,0.609 -0.211,0.359 -0.312,0.863 -0.246,1.219 0.153,0.797 -0.437,1.054 -1.074,0.476 -0.391,-0.351 -0.445,-0.617 -0.375,-1.754 0.047,-0.738 0.281,-1.738 0.523,-2.222 0.317,-0.641 0.403,-1.141 0.313,-1.817 -0.07,-0.515 -0.02,-1.125 0.109,-1.355 0.617,-1.106 3.039,-2.574 5.153,-3.129 1.023,-0.27 3.769,-0.344 5.25,-0.141 0.964,0.129 1.054,0.102 1.054,-0.316 0,-0.254 -0.14,-0.461 -0.316,-0.461 -0.176,0 -0.481,-0.164 -0.684,-0.363 -0.199,-0.203 -0.699,-0.594 -1.109,-0.871 l -0.742,-0.504 -0.692,0.758 c -0.804,0.886 -1.457,0.957 -2.789,0.316 -0.488,-0.238 -1.226,-0.434 -1.64,-0.438 -0.911,-0.007 -2.086,-0.695 -2.411,-1.41 -0.136,-0.297 -0.171,-0.859 -0.085,-1.285 0.132,-0.652 0.257,-0.773 0.921,-0.867 0.946,-0.137 1.09,-0.641 0.438,-1.555 -0.684,-0.961 -0.531,-1.812 0.371,-2.047 0.539,-0.136 0.738,-0.336 0.852,-0.843 0.117,-0.543 0.257,-0.664 0.761,-0.664 0.336,0 0.844,0.199 1.125,0.441 0.282,0.246 0.743,0.445 1.024,0.445 0.453,0 0.5,-0.097 0.465,-0.945 l -0.043,-0.941 0.918,-0.071 c 0.824,-0.058 0.988,0.02 1.589,0.746 0.653,0.793 0.86,1.379 1.364,3.84 0.351,1.723 0.308,1.973 -0.422,2.621 -0.363,0.325 -0.59,0.699 -0.504,0.836 0.082,0.137 0.172,0.383 0.199,0.551 0.024,0.164 0.227,0.469 0.449,0.676 0.223,0.211 0.68,0.703 1.016,1.101 0.664,0.789 1.234,0.774 0.809,-0.019 -0.325,-0.606 -0.309,-3.649 0.027,-5.129 0.562,-2.473 1.687,-4.809 2.746,-5.684 0.184,-0.156 0.82,-0.3 1.406,-0.32 0.602,-0.027 1.324,-0.215 1.66,-0.441 0.899,-0.61 2.821,-0.743 3.754,-0.258 0.418,0.219 1.012,0.472 1.317,0.562 0.359,0.11 0.418,0.176 0.168,0.192 -0.211,0.008 -0.387,0.168 -0.387,0.351 0,0.184 -0.176,0.348 -0.391,0.364 -0.41,0.035 -1.027,0.089 -1.66,0.152 -0.644,0.066 -1.062,1.183 -0.914,2.437 0.121,1.016 0.067,1.211 -0.617,2.184 -0.652,0.926 -1.086,1.398 -2.078,2.262 -0.285,0.246 -1.594,-0.004 -2.512,-0.485 -0.402,-0.207 -0.836,-0.312 -0.969,-0.23 -0.843,0.519 -0.953,3.422 -0.195,5.133 0.41,0.925 0.891,1.281 0.891,0.652 0,-0.422 1.129,-2.43 1.492,-2.652 0.164,-0.098 0.25,-0.254 0.191,-0.352 -0.148,-0.234 1.594,-1.891 2.539,-2.41 0.43,-0.238 1.477,-0.82 2.332,-1.297 1.551,-0.859 1.567,-0.863 4,-0.851 2.762,0.011 3.7,0.25 4.743,1.203 0.402,0.367 0.918,0.765 1.148,0.89 0.754,0.403 1.27,2.805 0.898,4.184 -0.32,1.191 -1.132,1.816 -2.367,1.816 -0.843,0 -1.008,-0.086 -1.304,-0.656 -0.454,-0.879 -0.426,-1.418 0.097,-1.895 0.422,-0.378 0.461,-0.371 1.141,0.2 0.387,0.324 0.812,0.55 0.949,0.508 0.141,-0.051 0.258,-0.594 0.262,-1.239 0.012,-1.394 -0.285,-1.726 -1.805,-2.011 -0.969,-0.184 -1.152,-0.157 -1.594,0.257 -0.515,0.481 -0.648,1.367 -0.289,1.934 0.211,0.336 -0.031,0.973 -0.574,1.519 -0.16,0.161 -0.371,0.414 -0.465,0.559 -0.094,0.148 -0.613,0.566 -1.152,0.934 -0.859,0.586 -1.211,0.675 -2.852,0.746 -1.711,0.07 -1.914,0.035 -2.425,-0.446 -0.7,-0.656 -1.188,-1.793 -1.188,-2.773 0,-0.41 -0.086,-0.75 -0.191,-0.75 -0.555,0 -2.258,1.738 -2.61,2.66 -0.57,1.516 -1.066,2.031 -2.926,3.039 -1.207,0.656 -1.812,1.137 -2.097,1.668 l -0.403,0.742 1.102,0.118 c 1.234,0.128 1.605,0.355 1.121,0.683 -0.238,0.16 -0.121,0.203 0.449,0.152 0.762,-0.062 0.774,-0.046 0.914,0.938 0.079,0.551 0.118,1.656 0.09,2.457 -0.047,1.273 -0.148,1.59 -0.851,2.555 -1.125,1.554 -2.145,2.191 -3.219,2.019 -1.16,-0.183 -1.727,0.25 -1.887,1.446 -0.14,1.054 0.078,1.621 0.906,2.355 0.696,0.617 1.465,0.641 2.047,0.055 0.578,-0.578 0.563,-1.067 -0.054,-1.727 -0.493,-0.519 -0.493,-0.535 -0.071,-0.848 1.106,-0.804 2.571,-0.039 2.571,1.344 0,1.266 -0.629,2.309 -1.543,2.563 -1.149,0.32 -2.239,0.265 -3.125,-0.157 z m 0,-8.957 c 0,-0.132 0.496,-0.211 1.175,-0.191 1.856,0.063 2.782,-0.703 2.485,-2.051 -0.16,-0.734 -0.946,-1.191 -1.879,-1.097 -0.899,0.093 -2.242,0.761 -2.129,1.058 0.059,0.153 -0.039,0.625 -0.219,1.051 -0.441,1.059 -0.41,1.457 0.121,1.457 0.242,0 0.446,-0.102 0.446,-0.227 z m -3.098,-6.003 c 0.941,-0.504 0.211,-2.434 -0.926,-2.434 -0.492,0 -1.976,0.629 -1.976,0.84 0,0.234 0.734,0.937 0.984,0.937 0.137,0 0.422,0.199 0.629,0.446 0.43,0.5 0.676,0.543 1.289,0.211 z m 16.656,-5.157 c 0.004,-0.152 0.199,-0.527 0.438,-0.832 0.242,-0.308 0.437,-0.715 0.441,-0.902 0.004,-0.191 0.219,-0.578 0.481,-0.859 0.335,-0.36 0.398,-0.555 0.214,-0.668 -0.144,-0.09 -0.203,-0.317 -0.129,-0.504 0.223,-0.586 -0.453,-0.61 -1.597,-0.063 -1.289,0.617 -1.695,1.035 -2.09,2.156 -0.273,0.774 -0.258,0.868 0.234,1.391 0.567,0.602 1.996,0.805 2.008,0.281 z m -15.336,-3.34 c 0,-0.75 0.567,-1.425 1.446,-1.714 0.851,-0.282 0.941,-0.59 0.445,-1.551 -0.363,-0.699 -0.875,-0.938 -2.012,-0.938 -0.875,0 -1.492,0.528 -1.848,1.578 -0.371,1.094 -0.316,1.754 0.204,2.485 0.601,0.844 1.765,0.933 1.765,0.14 z m 10.715,-3.136 c 0.297,-0.446 0.18,-1.364 -0.219,-1.703 -0.215,-0.184 -0.601,-0.625 -0.859,-0.977 l -0.469,-0.641 -0.39,0.598 c -0.477,0.727 -0.356,2.527 0.199,2.934 0.398,0.293 1.492,0.16 1.738,-0.211 z m -19.328,23.824 c -1.426,-0.883 -0.5,-2.848 1.34,-2.848 1.359,0 1.996,2.016 0.91,2.871 -0.719,0.567 -1.309,0.559 -2.25,-0.023 z m -2.207,-3.09 c -0.586,-0.219 -1.258,-1.648 -1.086,-2.328 0.363,-1.441 2.344,-1.961 3.223,-0.844 0.613,0.781 0.582,1.68 -0.094,2.481 -0.594,0.707 -1.328,0.957 -2.043,0.691 z m -2.047,-5.269 c -0.117,-0.219 -0.281,-1.012 -0.367,-1.762 l -0.152,-1.36 1.043,-0.156 c 1.261,-0.187 2.046,0.117 2.347,0.91 0.235,0.618 0.074,1.657 -0.25,1.657 -0.109,0 -0.199,0.144 -0.199,0.324 0,0.777 -2.039,1.101 -2.422,0.387 z m -0.238,-5.133 c -0.504,-0.137 -0.555,-0.27 -0.582,-1.457 -0.016,-0.719 0.015,-1.481 0.07,-1.692 0.25,-0.957 2.527,-0.445 3.113,0.703 0.5,0.977 0.352,1.719 -0.441,2.204 -0.746,0.453 -1.215,0.507 -2.16,0.242 z m 40.437,-1.465 c -0.172,-0.207 -0.222,-0.617 -0.129,-1.102 0.086,-0.457 0.036,-0.937 -0.121,-1.191 -0.207,-0.332 -0.195,-0.559 0.063,-1.07 0.301,-0.602 0.285,-0.684 -0.192,-1.196 -0.629,-0.672 -0.648,-1.195 -0.066,-1.777 0.582,-0.582 1.223,-0.563 1.652,0.051 0.473,0.672 0.434,1.445 -0.082,1.769 -0.418,0.262 -0.418,0.274 0.035,0.5 0.622,0.317 0.676,0.852 0.254,2.571 -0.422,1.726 -0.832,2.144 -1.414,1.445 z m -39.551,-3.727 c -0.8,-0.414 -1.07,-1.109 -0.89,-2.297 0.183,-1.191 0.445,-1.414 1.68,-1.418 0.925,-0.003 1.398,0.34 2.027,1.473 0.223,0.395 0.183,0.645 -0.223,1.445 -0.422,0.836 -0.594,0.973 -1.265,1.024 -0.426,0.031 -1.024,-0.07 -1.329,-0.227 z m 37.696,-3.902 c -0.457,-0.504 -0.461,-0.773 -0.024,-1.617 0.301,-0.586 0.45,-0.66 1.153,-0.602 0.679,0.059 0.836,0.172 0.976,0.711 0.254,0.953 -0.304,1.914 -1.113,1.914 -0.344,0 -0.789,-0.183 -0.992,-0.406 z m -36.121,-1.129 c -0.489,-0.457 -0.688,-0.848 -0.688,-1.34 0,-0.664 0.504,-1.715 0.992,-2.066 0.477,-0.34 1.383,-0.149 2.067,0.441 0.996,0.852 1.058,2.004 0.164,2.942 -0.828,0.863 -1.629,0.871 -2.535,0.023 z m 33.984,-1.84 c -0.25,-0.269 -0.453,-0.761 -0.453,-1.097 0,-0.336 -0.102,-0.676 -0.223,-0.75 -0.121,-0.075 -0.222,-0.332 -0.222,-0.571 0,-0.539 -0.782,-0.586 -1.075,-0.062 -0.246,0.441 -0.976,0.242 -0.796,-0.219 0.066,-0.172 -0.024,-0.367 -0.2,-0.434 -0.175,-0.07 -0.386,-0.496 -0.472,-0.949 -0.141,-0.746 -0.082,-0.894 0.64,-1.574 0.434,-0.41 0.871,-0.746 0.965,-0.746 0.41,0 1.16,0.726 1.16,1.121 0,0.238 0.098,0.434 0.223,0.434 0.309,0 0.277,0.804 -0.055,1.343 -0.355,0.571 0.043,0.871 1.18,0.875 1.008,0.004 1.5,0.375 1.672,1.27 0.117,0.586 0.035,0.805 -0.473,1.277 -0.75,0.696 -1.277,0.719 -1.871,0.082 z m -30.355,-1.84 c -0.293,-0.222 -0.332,-0.328 -0.121,-0.336 0.175,-0.003 0.058,-0.199 -0.278,-0.464 -0.633,-0.5 -0.734,-1.071 -0.328,-1.828 0.695,-1.301 1.918,-1.45 2.953,-0.352 0.852,0.902 0.887,1.973 0.094,2.766 -0.481,0.484 -0.641,0.527 -1.168,0.328 -0.391,-0.149 -0.559,-0.153 -0.469,-0.008 0.199,0.328 -0.187,0.266 -0.683,-0.106 z m 4.293,-3.171 c -0.34,-0.168 -0.809,-0.711 -1.051,-1.207 -0.406,-0.844 -0.41,-0.95 -0.078,-1.598 0.195,-0.383 0.468,-0.77 0.605,-0.86 0.375,-0.25 1.738,-0.207 1.578,0.051 -0.078,0.125 0.102,0.223 0.403,0.223 0.769,0 1.156,0.582 1.132,1.699 -0.015,0.715 -0.156,1.082 -0.535,1.41 -0.281,0.246 -0.57,0.453 -0.644,0.461 -0.074,0.012 -0.285,0.043 -0.465,0.074 -0.184,0.032 -0.609,-0.086 -0.945,-0.253 z m 19.445,-0.559 c -0.785,-0.848 -0.746,-1.898 0.109,-2.816 0.594,-0.645 0.629,-0.653 1.391,-0.336 1.453,0.605 1.668,1.832 0.535,3.05 -0.68,0.735 -1.418,0.77 -2.035,0.102 z m -14.68,-1.402 c -0.531,-0.375 -1.156,-1.649 -1.156,-2.364 0,-0.632 0.465,-0.992 1.512,-1.172 0.738,-0.125 0.961,-0.086 1.062,0.188 0.074,0.191 0.324,0.406 0.559,0.48 0.332,0.106 0.422,0.344 0.422,1.094 0,0.649 -0.106,1.004 -0.332,1.09 -0.184,0.07 -0.332,0.27 -0.332,0.441 0,0.176 -0.227,0.375 -0.5,0.45 -0.684,0.183 -0.672,0.183 -1.235,-0.207 z m 10.512,0.125 c -0.078,-0.121 -0.328,-0.223 -0.563,-0.223 -0.652,0 -0.996,-1.414 -0.621,-2.547 0.399,-1.203 1.09,-1.539 2.16,-1.043 1.079,0.496 1.153,0.633 1.051,1.977 -0.066,0.89 -0.211,1.269 -0.613,1.605 -0.574,0.477 -1.199,0.582 -1.414,0.231 z m -5.652,-1.278 c -0.965,-0.894 -0.965,-2.437 0,-2.953 0.668,-0.355 2.621,-0.019 2.898,0.5 0.41,0.766 0.031,2.016 -0.773,2.567 -0.942,0.648 -1.329,0.628 -2.125,-0.114 z"
         style="fill:#000000;fill-opacity:1;fill-rule:nonzero;stroke:none"
         id="path88" /></g></g></svg>
