<?xml version="1.0" encoding="UTF-8" standalone="no"?>
<!-- Created with Inkscape (http://www.inkscape.org/) -->

<svg
   version="1.1"
   id="svg2"
   width="200.08792"
   height="200"
   viewBox="0 0 200.08792 200"
   xmlns="http://www.w3.org/2000/svg"
   xmlns:svg="http://www.w3.org/2000/svg">
  <defs
     id="defs6" />
  <g
     id="g8">
    <path
       id="rect12669"
       style="opacity:1;fill:#000000;stroke-width:24.3385;stroke-linecap:round;paint-order:markers stroke fill"
       d="M 0,0 V 2.4003906 111.9668 193.32227 200 H 2.546875 C 1.7748389,187.51191 5.8693402,174.54289 8.9648438,164.17383 14.685064,145.16216 26.83414,120.5398 38.53125,104.25195 c 2.51368,-3.50022 3.471969,-5.639748 2.824219,-6.300778 -0.64776,-0.66104 -3.4279,1.521731 -8.1875,6.431638 -7.40912,7.64307 -12.029143,10.58126 -16.570313,10.53516 -3.08633,-0.0313 -6.565509,-3.25956 -6.537109,-6.06445 0.0347,-3.42178 6.943212,-9.717198 19.507812,-17.777348 l 12.085938,-7.751953 1.880859,2.441406 c 1.03486,1.34344 2.332843,2.447125 2.882813,2.453125 0.54997,0.006 0.0533,-1.215624 -1.101563,-2.714844 l -2.099609,-2.726562 2.324219,-1.748047 c 1.27742,-0.96164 2.738956,-1.615505 3.248046,-1.453125 1.55323,0.49543 3.017096,3.551755 2.103516,4.390625 -0.47278,0.4341 -1.054409,0.223163 -1.292969,-0.466797 -0.23854,-0.68995 -1.141499,-1.260531 -2.005859,-1.269531 -1.34489,-0.0136 -1.310275,0.277511 0.234375,2.019531 1.75772,1.9823 1.733479,2.108955 -0.894531,4.796875 -1.48429,1.51814 -2.702985,3.259544 -2.708985,3.871094 -0.006,0.61154 -0.543819,1.282977 -1.193359,1.492187 -0.64953,0.20922 -0.850466,0.92631 -0.447266,1.59375 0.47092,0.77953 4.278252,-3.32016 10.644532,-11.46289 C 67.316646,66.521696 83.635826,52.128411 106.79102,37.300781 133.56267,24.566429 171.45099,3.9815314 200,2.4003906 V 0 h -12.32031 -2.69531 -20.25586 -7.59571 -15.89062 -8.71875 -20.25391 -3.26758 H 86.892578 75.859375 66.654297 54.744141 48.822266 34.708984 21.857422 6.2402344 2.546875 Z m 18.898438,2.7050781 c 0.628336,0.076029 1.293243,0.2290388 2.064453,0.4492188 4.68955,1.33886 8.436046,3.322605 10.066406,5.328125 1.14214,1.40497 1.724829,1.1946206 5.199219,-1.8808594 2.69748,-2.38776 4.875635,-3.4552937 7.009765,-3.4335937 3.91398,0.0397 9.633796,2.7867774 10.916016,5.2421874 1.30764,2.5040698 2.30647,2.3802118 3.875,-0.4804687 1.42462,-2.59822 5.016149,-4.5605437 8.287109,-4.5273437 4.26616,0.0433 9.629366,2.35942 10.134766,4.375 0.4844,1.9321599 0.622667,1.9096762 3.617187,-0.5585938 5.61827,-4.63098 15.281772,-4.6183525 18.857422,0.023437 1.857359,2.4112 1.919329,2.4191619 3.650389,0.5449219 2.45339,-2.6563 11.79814,-4.5675394 15.00195,-3.0683594 7.01931,3.2846 7.39011,17.9676735 0.58594,23.2089845 -3.47551,2.677219 -3.83295,1.958599 -1.30859,-2.638672 2.55666,-4.656109 2.89644,-12.492851 0.64062,-14.794921 -3.61826,-3.6924209 -9.74019,-2.6877596 -15.92968,2.613281 l -2.998051,2.568359 -1.333984,-3.449219 c -1.42384,-3.67785 -3.843862,-5.0141413 -8.570313,-4.7382813 -3.73949,0.21826 -9.317554,3.5652013 -10.146484,6.0878913 -0.76177,2.31828 -2.510681,2.577851 -2.488281,0.36914 0.0211,-2.08097 -5.895701,-7.5038438 -8.212891,-7.5273437 -4.17049,-0.0423 -9.693037,4.6236327 -9.773437,8.2578127 -0.0283,1.27836 -0.532358,1.663345 -1.617188,1.234375 -0.86655,-0.34265 -1.76413,-0.624953 -1.99414,-0.626953 -0.22999,-0.002 -0.411297,-0.600978 -0.404297,-1.330078 0.0144,-1.4181 -3.078976,-4.4412624 -6.603516,-6.4511724 -4.40178,-2.51019 -9.813197,0.1418744 -11.523437,5.6464854 l -1.246094,4.007812 -3.585938,-3.574219 c -1.97262,-1.9657 -4.08207,-3.577984 -4.6875,-3.5839846 -0.60544,-0.006 -1.351956,-0.6894082 -1.660156,-1.5175781 C 24.036583,6.6421387 16.033107,6.3230294 12.810547,8.0058594 3.6074869,12.811739 5.7357394,27.684471 16.693359,35.144531 l 2.59961,1.769531 -2.826172,-0.02148 c -3.99817,-0.0312 -8.7233251,4.804816 -8.7656251,8.972656 -0.0245,2.41224 0.8887675,4.09505 3.6796871,6.78125 2.43093,2.33972 3.256928,3.719637 2.392579,3.998047 -2.72735,0.87847 -6.1035886,4.774168 -6.7363286,7.773438 -0.51913,2.46073 -0.1127181,3.767564 1.9511718,6.271484 1.4336198,1.73928 3.4665278,3.170941 4.5175778,3.181641 2.54956,0.0259 2.399791,1.472708 -0.380859,3.673828 -7.67695,6.07698 -7.8434212,14.785839 -0.332031,17.349609 l 3.591797,1.22461 -3.775391,3.789062 c -3.07674,3.087563 -3.8730444,4.707193 -4.3027344,8.748043 -0.48564,4.56713 -0.3091793,5.10418 2.2441404,6.81445 3.60365,2.41381 9.254258,2.27662 14.423828,-0.35156 2.25894,-1.14845 4.32887,-2.08698 4.59961,-2.08398 1.34962,0.0137 -3.26894,5.25863 -5.71875,6.49414 -3.07123,1.54891 -11.149645,1.71978 -14.5468752,0.30859 -6.59162,-2.73813 -7.0284332,-14.83315 -0.7207032,-19.960933 1.9699504,-1.60144 2.0499024,-3.033634 0.1699219,-3.052734 -0.78504,-0.008 -2.3914794,-1.26259 -3.5683594,-2.78711 -2.77015,-3.5884 -2.1109506,-8.897573 1.7871094,-14.402343 2.56976,-3.62897 2.6728456,-4.083474 1.1347656,-4.964844 -2.35614,-1.35012 -4.6400156,-6.220296 -4.6035156,-9.816406 0.0196,-1.93265 1.1340487,-4.247376 3.1054687,-6.447266 2.71815,-3.03318 2.8849944,-3.53995 1.4277344,-4.375 C 7.1342356,53.51164 5.8487038,50.878408 5.1835938,48.179688 3.8346938,42.706507 5.0320819,38.886602 8.8261719,36.570312 11.365572,35.020012 11.330785,34.61158 8.328125,30.96875 3.383305,24.96967 2.3736487,15.505514 5.9804688,8.9589844 6.6834787,7.6829944 9.5179669,5.6185269 12.279297,4.3730469 c 3.17139,-1.43043 4.734132,-1.896056 6.619141,-1.6679688 z M 150.31641,3.3476562 c 0.13574,0.016121 0.5139,0.4658932 1.22851,1.3613282 0.85902,1.07639 1.55166,2.9696712 1.53906,4.2070312 -0.0126,1.2373504 -0.47587,2.5231024 -1.02929,2.8574224 -0.58475,0.353249 -0.99416,-0.639051 -0.97657,-2.3691411 0.0166,-1.63739 -0.22354,-3.8037832 -0.5332,-4.8144531 -0.2576,-0.8407701 -0.36426,-1.2583088 -0.22851,-1.2421876 z m 10.3164,1.859375 c 0.0543,0.031921 0.11339,0.1630469 0.17383,0.4042969 0.24175,0.965 0.22606,2.5401 -0.0352,3.5 -0.26128,0.9598999 -0.45895,0.1709938 -0.43945,-1.7539062 0.0146,-1.443675 0.13788,-2.2461544 0.30078,-2.1503907 z m -29.63476,1.3457032 c 0.0448,-0.01245 0.097,4e-4 0.1582,0.039063 1.71648,1.08506 2.93939,8.1793246 1.87695,10.8906246 -1.42965,3.64854 -2.27947,3.204273 -1.49023,-0.779297 0.36556,-1.84514 0.22917,-5.000802 -0.30469,-7.0136714 -0.46718,-1.7612612 -0.55358,-3.0495702 -0.24023,-3.1367192 z m 10.66211,0.4589844 c 0.13236,-0.1075809 0.29868,0.1194437 0.50586,0.6601562 0.42315,1.10435 0.79,2.993849 0.8164,4.199219 0.0264,1.20537 -0.38825,2.456937 -0.92187,2.779297 -0.57618,0.34807 -0.90711,-1.359212 -0.81641,-4.201172 0.0686,-2.147894 0.19542,-3.2581988 0.41602,-3.4375002 z m 56.6875,0.7460937 c -1.49561,-0.002 -1.53321,0.1410419 -0.25977,0.9824219 1.87474,1.2387 1.98759,1.2391112 2,0.019531 0.006,-0.54997 -0.7777,-0.9999531 -1.74023,-1.0019529 z M 43.650391,8.5761719 c 1.82194,-0.003 4.113503,1.0744918 6.746093,3.5449221 3.46012,3.247 3.928558,4.463909 7.554688,19.630859 1.59072,6.65351 3.094507,12.828123 3.341797,13.720703 0.2687,0.96985 -0.547247,2.261208 -2.029297,3.210938 -2.31352,1.48256 -2.517476,1.467693 -3.035156,-0.222656 -0.30521,-0.99659 -1.329981,-2.6863 -2.275391,-3.75586 -2.7167,-3.07344 -6.382526,-8.459472 -10.541016,-15.482422 -6.4652,-10.91858 -5.227548,-20.6382241 0.238282,-20.6464841 z m 23.52539,0.4375 c 0.385943,0.00642 0.762976,0.081429 1.126953,0.2246093 1.45591,0.57273 2.717825,2.2319148 3.640625,4.9218748 1.21374,3.53804 1.149719,5.479301 -0.544921,16.394532 L 69.476562,42.9375 66.251953,42.9043 63.027344,42.8711 61.96875,34.2461 C 61.3861,29.50261 60.938156,22.841402 60.972656,19.441412 c 0.053,-5.2224 0.444347,-6.558492 2.529297,-8.601562 1.270815,-1.2452927 2.516001,-1.845426 3.673828,-1.8261721 z m 22.076172,0.625 c 2.46053,0.0195 4.793072,2.8191971 4.763672,5.7167971 -0.0214,2.11224 -6.762873,15.184565 -14.914063,28.921875 -1.914959,3.2273 -4.540168,4.056379 -7.261718,2.292968 -1.98836,-1.288339 0.4096,-2.44155 3.43164,-1.65039 1.34025,0.35087 2.440313,0.215969 2.445313,-0.300781 0.005,-0.51675 -1.287047,-1.238266 -2.873047,-1.603516 l -2.884766,-0.664063 2.466797,-8.669921 c 4.24402,-14.92454 6.611379,-20.159969 10.042969,-22.205079 1.7072,-1.01743 3.860023,-1.8448901 4.783203,-1.8378901 z M 16.271484,9.9277344 c 4.75696,-0.53606 10.995618,3.5608756 16.679688,11.3847656 2.44105,3.36 5.994694,7.987696 7.896484,10.285156 1.9018,2.29746 4.789679,5.935425 6.417969,8.083985 1.62829,2.14855 4.183141,5.360952 5.675781,7.138671 l 2.712891,3.232422 -3.576172,3.826172 c -1.96727,2.1045 -3.843479,4.840588 -4.167969,6.080078 -0.32449,1.23949 -0.990109,2.249141 -1.480468,2.244141 -1.39442,-0.0142 -1.019574,-2.712125 0.597656,-4.296875 1.27534,-1.24973 1.184566,-1.68857 -0.714844,-3.4375 -1.1972,-1.10235 -3.775216,-3.095941 -5.728516,-4.431641 -1.9533,-1.3357 -8.050861,-6.07522 -13.550781,-10.53125 C 11.882653,27.230939 6.6984244,17.705416 12.083984,12.041016 c 1.18061,-1.24175 2.60184,-1.934592 4.1875,-2.1132816 z m 174.236326,0.011719 c -0.5276,0.046493 -1.34422,0.1387166 -2.43554,0.2636716 -7.3812,0.84392 -7.93992,0.950556 -8.66407,1.660156 -1.05751,1.03627 1.56174,0.77119 7.6543,-0.77539 2.67146,-0.67815 4.01643,-1.024642 4.14648,-1.1386719 0.065,-0.057015 -0.17356,-0.056258 -0.70117,-0.00977 z m -77.92773,1.2832026 c 0.32787,0.0071 0.63136,0.05113 0.91406,0.134766 1.13083,0.33455 1.9335,1.290946 2.66797,2.947266 2.3499,5.299289 -6.02133,15.895878 -23.437501,29.667968 -4.15857,3.28846 -8.022077,6.312673 -8.585937,6.720703 -0.56385,0.40803 -2.011327,-0.0249 -3.216797,-0.960937 L 78.730469,48.03125 87.453125,36.119141 c 11.86985,-16.20824 17.327905,-22.323293 21.400395,-23.976563 1.53786,-0.624315 2.74294,-0.941239 3.72656,-0.919922 z m 63.5918,1.691406 c -1.73877,0.19 -6.50041,1.398617 -13.16407,3.503907 -15.01486,4.74374 -20.33109,6.788493 -31.68945,12.183593 -9.81646,4.662701 -34.289891,19.090799 -35.650391,21.017579 -0.27902,0.39516 -3.169135,2.626414 -6.421875,4.958984 -3.25274,2.33259 -11.221265,9.443371 -17.708985,15.800781 -10.96292,10.74272 -13.575411,13.772211 -21.019531,24.369141 -1.53459,2.18454 -4.700986,6.450893 -7.035156,9.482423 -4.15705,5.39903 -8.792897,12.8835 -12.279297,19.82226 -0.96237,1.91535 -2.292278,4.15239 -2.955078,4.97071 -0.6628,0.81832 -2.425436,4.40088 -3.916016,7.96094 -1.49057,3.56006 -3.145867,7.36825 -3.679687,8.46289 -2.19582,4.50267 -9.244499,23.9379 -11.292969,31.13867 -1.2089,4.24952 -2.4195531,8.47554 -2.6894531,9.39062 -0.30253,1.02566 0.195385,1.84844 1.296875,2.14649 3.1391701,0.84943 3.2832841,0.77361 3.3085941,-1.72266 0.0137,-1.34905 0.439905,-3.48193 0.947265,-4.74023 0.50736,-1.2583 1.740052,-5.20447 2.738282,-8.76954 2.9641,-10.58591 4.705301,-16.2438 6.138671,-19.93945 0.74373,-1.91755 2.103132,-5.54314 3.019532,-8.05664 0.91642,-2.51352 2.326092,-5.42456 3.132812,-6.46875 1.34862,-1.74561 1.393689,-1.65643 0.574219,1.09375 -1.03448,3.47177 -2.795506,8.11336 -4.160156,10.95899 -1.54607,3.22395 -4.188398,12.75625 -3.679688,13.27539 0.25753,0.26281 0.768559,-0.37067 1.136719,-1.40821 5.48022,-15.44379 14.735169,-34.77034 21.412109,-44.71484 2.47947,-3.69288 4.509719,-6.89194 4.511719,-7.10938 0.002,-0.21746 1.14128,-1.59755 2.53125,-3.0664 1.38997,-1.46885 2.539088,-3.12615 2.554687,-3.68164 0.0151,-0.55549 1.156587,-2.05854 2.535157,-3.33985 1.37855,-1.281246 2.50014,-1.832316 2.49414,-1.224606 -0.0188,1.851376 1.941757,1.261466 4.660157,-1.402343 2.34885,-2.30167 2.688727,-2.377156 3.779296,-0.853516 1.08286,1.51287 1.363801,1.424654 2.931641,-0.916016 0.95401,-1.42427 2.398668,-2.582218 3.210938,-2.574218 1.90094,0.0193 1.876495,1.43163 -0.05273,3 -0.8319,0.67628 -1.517437,1.71671 -1.523437,2.3125 -0.006,0.5958 1.877877,-0.901212 4.185547,-3.326172 4.17349,-4.38561 4.200496,-4.395858 5.216796,-2.054688 0.86465,1.99183 0.642951,2.638935 -1.443359,4.208985 -1.35591,1.0204 -1.930281,1.869871 -1.275391,1.888672 0.654881,0.0189 1.478969,-0.41918 1.830079,-0.97461 0.90964,-1.43897 2.49054,-0.174181 2.46875,1.974612 -0.0283,2.78355 -6.452021,9.18512 -8.431641,8.40234 -2.15621,-0.85261 -2.099401,-1.15439 0.949219,-5.06836 3.27431,-4.203718 2.503919,-4.292354 -1.431641,-0.16601 -2.69671,2.82742 -3.279154,3.03558 -5.521484,1.98632 -2.29016,-1.07167 -2.759401,-0.85478 -5.431641,2.50391 -3.87072,4.86505 -15.448991,23.44316 -15.462891,24.81055 -0.006,0.59102 -0.400469,1.2199 -0.875,1.39844 -0.47451,0.17851 -1.850073,2.56484 -3.058593,5.30273 -2.07299,4.69628 -2.084923,4.83747 -0.189453,2.49805 1.10505,-1.36386 2.021709,-2.74013 2.037109,-3.0586 0.0547,-1.12726 8.795261,-15.58639 14.244141,-23.56445 5.32889,-7.80236 7.051968,-8.72855 7.042968,-3.78516 -0.002,1.10334 0.522469,1.66174 1.292969,1.375 0.71327,-0.26543 2.116171,0.12978 3.119141,0.87891 1.27609,0.95308 3.664422,1.21818 7.951172,0.88281 6.76049,-0.52892 9.6457,-2.50041 9.6875,-6.61914 0.0164,-1.61581 1.890508,-4.26149 5.580078,-7.87695 3.05553,-2.994152 5.559453,-5.816446 5.564453,-6.271486 0.005,-0.45504 -2.672126,1.771425 -5.947266,4.947265 -5.68408,5.511791 -5.985559,5.668051 -6.662109,3.458981 -0.60115,-1.96291 0.302451,-3.249233 5.957031,-8.472652 l 6.666016,-6.158204 7.031256,-0.261718 c 3.86619,-0.14395 7.02353,-0.009 7.01953,0.300781 -0.004,0.30957 -1.31406,1.790796 -2.91211,3.291015 -1.75085,1.643691 -3.14761,4.188364 -3.51367,6.402344 -0.33411,2.02075 -0.94344,4.795124 -1.35547,6.166014 -0.6151,2.04662 0.26741,1.53639 4.93555,-2.85351 3.12688,-2.940494 6.45334,-6.924989 7.39257,-8.853519 l 1.70704,-3.50586 2.58789,3.134766 c 2.9266,3.54474 9.13469,7.33954 12.05468,7.369141 2.66935,0.0271 9.95837,3.111132 9.94727,4.208982 -0.005,0.49025 0.66724,0.90021 1.49219,0.9082 2.91015,0.0295 1.46673,-2.96376 -4.10938,-8.519526 -3.3701,-3.3578 -7.16889,-6.093368 -9.43945,-6.798828 -2.08952,-0.6492 -3.65432,-1.319928 -3.47852,-1.492188 0.17579,-0.17228 3.67193,-0.748167 7.76954,-1.279297 4.09759,-0.53113 9.48173,-1.609514 11.96484,-2.396484 7.89258,-2.50139 11.12584,-2.317814 14.9707,0.853515 3.05959,2.523611 4.25512,2.853769 10.58594,2.917969 5.62281,0.0571 7.67112,0.501726 9.6582,2.097657 1.38719,1.114119 2.98838,2.031109 3.55664,2.037109 4.37616,0.0444 -1.08931,-7.31683 -8.09765,-10.90625 -4.68014,-2.39699 -13.41659,-3.107764 -15.31641,-1.246094 -0.7405,0.7256 -1.30044,0.740622 -1.7207,0.04492 -0.34276,-0.5674 2.62909,-3.163191 6.60547,-5.769531 3.97637,-2.60633 8.40392,-5.520943 9.83789,-6.476563 1.66779,-1.11142 4.15813,-1.648594 6.91406,-1.490234 3.98759,0.22912 4.68087,-0.132256 9.30078,-4.853516 2.7453,-2.80552 4.99309,-5.344365 4.99609,-5.640625 0.0106,-1.04682 -5.10143,-0.570744 -8.4414,0.785156 -1.86125,0.75559 -4.42671,2.753687 -5.70117,4.441407 -2.78443,3.6873 -5.87409,4.39466 -3.52344,0.80664 0.80542,-1.22939 2.01833,-4.254396 2.69531,-6.722656 1.43014,-5.21423 7.10476,-11.080931 12.56836,-12.994141 4.31037,-1.509399 4.74538,-3.246296 0.5957,-2.378906 l -2.97656,0.621094 3.03516,-6.519531 c 1.67017,-3.58628 3.04473,-7.179795 3.05273,-7.984375 0.0331,-3.26589 -2.38235,-2.563383 -6.86914,1.998047 -4.71307,4.79148 -7.257,10.266434 -7.3125,15.740234 -0.0152,1.50121 -0.90104,3.930718 -1.96875,5.398437 -1.06771,1.46772 -2.27872,4.449594 -2.69141,6.626954 -0.56195,2.96499 -2.02103,5.145123 -5.81445,8.683593 -2.78572,2.59849 -5.27677,4.507821 -5.53515,4.244141 -0.25838,-0.26367 0.0463,-1.914129 0.67773,-3.667969 1.38911,-3.8584 1.5439,-10.835294 0.28516,-12.871093 -0.76684,-1.240251 -1.03062,-1.162749 -1.61719,0.482421 -0.38532,1.08072 -1.82369,4.356044 -3.19727,7.277344 -1.61423,3.43313 -2.41094,6.696076 -2.2539,9.228516 0.15275,2.46318 -0.30628,4.420751 -1.23438,5.269531 -1.40004,1.28038 -10.00119,3.780377 -9.99219,2.904297 0.002,-0.22744 1.08887,-2.093684 2.41407,-4.146485 4.00249,-6.20013 5.13443,-15.159862 2.70703,-21.414062 -1.26186,-3.25118 -2.8339,-2.747738 -2.8711,0.919922 -0.0145,1.42689 -1.27761,5.099389 -2.80664,8.162109 -1.96316,3.93229 -2.83015,7.270662 -2.95312,11.357422 -0.0958,3.18303 -0.58956,6.185618 -1.0957,6.673828 -1.1815,1.13963 -14.49658,4.460463 -20.83399,5.195313 l -4.87695,0.564453 1.63476,-2.230469 c 5.55288,-7.57591 7.18876,-11.291089 7.63672,-17.355469 0.25464,-3.44763 0.20948,-6.948707 -0.0996,-7.779297 -0.89019,-2.39206 -3.64568,-0.664052 -3.67578,2.304688 -0.031,3.05855 -4.93652,9.345705 -9.54492,12.234375 -2.97415,1.86427 -2.99478,1.920984 -0.49805,1.396484 2.53614,-0.53278 2.60391,-0.408478 2.72266,4.863282 0.15136,6.71961 -1.24248,7.838663 -2.8457,2.283203 -0.67309,-2.33238 -2.68603,-5.570648 -4.54102,-7.304688 l -3.33203,-3.113281 7.01367,-4.302734 c 3.85746,-2.36627 6.83274,-4.486951 6.61133,-4.712891 -0.57041,-0.5821 -8.54944,3.486323 -12.25977,6.251953 -1.71497,1.2783 -3.66722,2.3195 -4.33984,2.3125 -0.74537,-0.008 -1.00923,0.769678 -0.67578,1.992188 0.3009,1.10311 0.80388,2.947596 1.11914,4.097656 0.38242,1.39504 -0.21536,2.943984 -1.79688,4.652344 l -2.37109,2.560547 2.46094,-1.625 c 2.27736,-1.50375 2.59332,-1.502747 4.25,0.02734 0.98434,0.90915 1.78525,2.013315 1.78125,2.453125 -0.0138,1.36593 -6.93926,2.134185 -8.36328,0.927735 -0.72588,-0.615 -1.58629,-0.85639 -1.91211,-0.53711 -0.77201,0.75649 -6.721898,-0.614785 -6.712898,-1.546875 0.004,-0.39326 2.273792,-2.407382 5.044922,-4.476562 2.771146,-2.06916 5.043836,-4.186278 5.048836,-4.705078 0.0114,-1.12308 -6.681051,3.617101 -9.601571,6.800781 -2.04148,2.22544 -4.498721,2.980113 -4.482422,1.376953 0.007,-0.73741 2.293856,-3.049822 11.666023,-11.794922 1.31204,-1.22425 2.68963,-2.22275 3.06054,-2.21875 0.3709,0.004 3.90031,-2.142921 7.84376,-4.769531 6.37775,-4.24806 25.86264,-14.354879 34.48242,-17.886719 1.75522,-0.71918 2.96126,-1.685567 2.68164,-2.148437 -0.27962,-0.46279 -1.03422,-0.444032 -1.67774,0.04297 -0.6435,0.48697 -4.68863,2.288193 -8.98828,4.001953 -10.30439,4.107141 -20.9015,9.599198 -30.43359,15.773438 -4.26382,2.76181 -7.93875,4.831549 -8.16602,4.599609 -0.5241,-0.53483 9.20255,-7.563481 10.44922,-7.550781 0.51008,0.005 1.80869,-0.780827 2.88477,-1.748047 3.12963,-2.81303 17.06923,-10.473088 29.9375,-16.449219 11.3478,-5.27006 14.85536,-7.648376 7.73828,-5.248046 -5.21693,1.75948 -38.27028,17.947608 -42.5957,20.861328 -2.14173,1.44274 -4.10377,2.409287 -4.35938,2.148437 -0.25559,-0.26085 0.82032,-1.281388 2.39062,-2.267578 1.57031,-0.98618 3.73458,-2.57524 4.81055,-3.53125 1.07596,-0.95602 2.29029,-1.734479 2.69727,-1.730469 0.40699,0.004 1.3405,-0.548425 2.07422,-1.228515 2.05339,-1.9033 28.57517,-14.729938 36.75195,-17.773438 4.00282,-1.4899 7.28211,-3.112129 7.28711,-3.605469 0.005,-0.493349 -2.36265,0.0233 -5.26172,1.148438 -2.89906,1.12514 -6.39822,2.373104 -7.77734,2.771484 -4.35485,1.25795 -33.8392,15.353877 -34.58594,16.535157 -0.39269,0.6212 -1.46341,1.122281 -2.38086,1.113281 -1.59282,-0.0162 3.81261,-3.844716 12.31836,-8.722656 5.87238,-3.36773 31.71324,-14.483808 36.8125,-15.835938 2.42985,-0.6443 3.89033,-1.367642 3.24414,-1.607422 -2.30724,-0.85614 -14.86722,3.667159 -33.00195,11.886719 -8.28423,3.75483 -8.21216,3.732927 -5.96094,1.904297 2.24538,-1.82388 26.06519,-13.226438 27.59765,-13.210938 0.53578,0.005 0.75966,-0.564608 0.49805,-1.267578 -0.45863,-1.23241 5.44525,-4.156498 6.40821,-3.173828 0.24748,0.25258 -0.74242,0.90048 -2.19922,1.4375 -4.58317,1.68951 -2.88332,1.975949 2.10742,0.355469 2.62126,-0.85111 5.13277,-2.148363 5.58008,-2.882813 0.4473,-0.73445 1.35165,-1.32134 2.01172,-1.30664 0.73408,0.0168 0.61488,0.396858 -0.3086,0.980468 -1.71641,1.084701 -0.065,1.340539 2.49805,0.386719 1.14722,-0.42693 1.3123,-0.849493 0.52734,-1.345703 -0.6965,-0.44029 0.15829,-1.195641 2.18555,-1.93164 5.42669,-1.97013 6.71142,-2.799366 4.97266,-2.609376 z m 15.02734,0.1875 c -0.58267,0.02176 -1.29985,0.0743 -2.1582,0.164063 -3.02837,0.31668 -5.96012,1.016311 -6.51563,1.556641 -0.66868,0.65041 0.68127,0.759955 3.99609,0.322265 6.27725,-0.828844 8.75643,-2.195302 4.67774,-2.042969 z m -11.30469,1.453126 c -2.03599,-0.0206 -8.88948,2.211004 -8.89648,2.896484 -0.004,0.36763 2.24832,0.228769 5.0039,-0.306641 2.75557,-0.5354 5.01358,-1.33403 5.01758,-1.77539 0.004,-0.44137 -0.50134,-0.808453 -1.125,-0.814453 z M 18.566406,16.326172 c -0.27077,0.0416 -0.648442,0.239076 -1.070312,0.582031 -0.83191,0.67628 -1.517438,1.678536 -1.523438,2.228516 -0.006,0.5578 0.658213,0.457394 1.501953,-0.228516 0.8319,-0.67628 1.517438,-1.680499 1.523438,-2.230469 0.003,-0.2789 -0.160871,-0.393166 -0.431641,-0.351562 z m 159.222654,2.632812 c -0.56424,0.05454 -1.18411,0.229469 -1.72461,0.511719 -1.08099,0.56449 -2.78239,1.038034 -3.78125,1.052735 -0.99886,0.0147 -3.1725,0.63038 -4.83008,1.36914 -4.26267,1.89976 -1.15096,1.771335 6.42969,-0.265625 3.5774,-0.96127 5.9324,-2.054051 5.29492,-2.457031 -0.31579,-0.19963 -0.82442,-0.265478 -1.38867,-0.210938 z m -94.455076,2.617188 c -0.82497,-0.008 -1.226898,0.436814 -0.892578,0.990234 0.33432,0.55342 1.282462,1.013485 2.107422,1.021485 0.82487,0.008 1.226898,-0.436815 0.892578,-0.990235 -0.33433,-0.55342 -1.282462,-1.013484 -2.107422,-1.021484 z m -59.154296,0.40039 c -1.06318,-0.0108 -3.256879,2.114396 -3.267579,3.166016 -0.0157,1.55208 1.934779,0.796151 3.011719,-1.167969 0.59983,-1.09397 0.715179,-1.993047 0.25586,-1.998047 z m 24.880859,0.251954 c -0.54997,-0.006 -1.281473,0.437845 -1.626953,0.984375 -0.34548,0.54652 -0.178877,0.997906 0.371094,1.003906 0.54997,0.006 1.283426,-0.437845 1.628906,-0.984375 0.34549,-0.54652 0.176923,-0.997906 -0.373047,-1.003906 z m 54.751953,1.554687 c -0.54998,-0.006 -0.7269,0.442674 -0.39258,0.996094 0.33432,0.55342 1.05745,1.011578 1.60742,1.017578 0.54998,0.006 0.7269,-0.442674 0.39258,-0.996094 -0.33432,-0.55342 -1.05745,-1.011578 -1.60742,-1.017578 z m -23.123047,1.824219 c -0.506876,-0.01099 -0.781159,0.275618 -0.787109,0.861328 -0.005,0.50965 0.776048,1.110154 1.736328,1.333984 2.36983,0.55241 3.019125,-0.115321 1.234375,-1.269531 -0.937245,-0.606135 -1.676718,-0.914787 -2.183594,-0.925781 z m -50.433594,0.429687 c -1.02612,-0.0104 -4.384531,3.131608 -4.394531,4.111329 -0.017,1.67117 1.794911,0.813686 3.425781,-1.621094 0.91487,-1.36579 1.35061,-2.486235 0.96875,-2.490235 z m 21.265625,0.216797 c -0.82496,-0.008 -1.783426,0.431996 -2.128906,0.978516 -0.34548,0.54652 0.04609,0.999822 0.871094,1.007812 0.82495,0.008 1.783426,-0.431995 2.128906,-0.978515 0.34548,-0.54652 -0.0461,-0.999813 -0.871094,-1.007813 z m 144.677736,0.966797 -0.75,2.994141 c -0.4122,1.6459 -1.73401,4.927358 -2.9375,7.292968 -2.68658,5.280831 -3.77854,6.058396 -3.74414,2.666016 0.0366,-3.60556 2.38176,-8.627042 5.125,-10.976562 z M 99.5625,27.917969 c -0.147754,0.02735 -0.278399,0.08905 -0.380859,0.189453 -0.40982,0.4016 -0.10063,1.138509 0.6875,1.636719 1.855799,1.17312 2.708399,0.33865 1.212889,-1.1875 -0.47635,-0.486113 -1.07627,-0.720714 -1.51953,-0.638672 z m -32.693359,1.621093 c -0.453134,-0.0046 -0.906813,0.06011 -1.251953,0.195313 -0.690281,0.27042 -0.128837,0.503678 1.246093,0.517578 1.37492,0.014 1.938556,-0.207817 1.253907,-0.492187 -0.342326,-0.142205 -0.794914,-0.216104 -1.248047,-0.220704 z m -33.046875,0.671876 c -0.886832,0.08453 -2.081199,1.177336 -3.019532,2.888671 -0.58312,1.06351 -0.663767,1.93836 -0.179687,1.94336 1.28904,0.0131 4.65244,-3.862716 3.962891,-4.566407 -0.206286,-0.210509 -0.468062,-0.293801 -0.763672,-0.265624 z m 45.919922,0.330078 c -1.099941,-0.0112 -1.726909,0.430955 -1.392579,0.984375 0.33432,0.55342 1.509435,1.016153 2.609375,1.027343 1.09994,0.0112 1.724955,-0.432908 1.390625,-0.986328 -0.33432,-0.55342 -1.507481,-1.01419 -2.607421,-1.02539 z m -25.955079,0.02344 c -1.198515,0.06049 -2.938865,0.957305 -2.947265,1.789063 -0.0116,1.13971 1.090896,1.1264 2.972656,-0.03711 0.81418,-0.50343 1.222813,-1.17893 0.908203,-1.5 -0.19493,-0.198925 -0.534089,-0.272117 -0.933594,-0.251953 z M 158.96484,32.34375 c -0.54997,-0.006 -1.28342,0.437855 -1.6289,0.984375 -0.34548,0.54652 -0.17693,0.997906 0.37304,1.003906 0.54998,0.006 1.28147,-0.437855 1.62696,-0.984375 0.34548,-0.54652 0.17887,-0.997906 -0.3711,-1.003906 z M 94.351562,32.6875 c -0.65397,-0.02715 -0.480308,0.331749 0.378907,1.388672 1.56673,1.92725 3.417627,2.184351 2.841797,0.394531 -0.22192,-0.68979 -1.250347,-1.427222 -2.285157,-1.638672 -0.406952,-0.08315 -0.717556,-0.135482 -0.935547,-0.144531 z m -27.96289,1.363281 c -0.816446,0.121859 -1.569219,0.471023 -1.574219,0.945313 -0.002,0.21614 0.922288,0.402562 2.054688,0.414062 1.13241,0.0115 1.798235,-0.412156 1.478515,-0.941406 -0.262415,-0.434385 -1.142538,-0.539828 -1.958984,-0.417969 z m -28.853516,0.392578 c -0.277377,-0.087 -0.820212,0.400013 -1.765625,1.511719 -1.09482,1.2874 -1.994,2.810486 -2,3.384766 -0.006,0.57428 0.897773,0.238186 2.007813,-0.746094 1.11004,-0.98428 2.009,-2.507366 2,-3.384766 -0.0049,-0.454597 -0.07576,-0.713422 -0.242188,-0.765625 z m 18.058594,0.898438 c -0.727101,-0.0073 -1.801504,0.299186 -2.792969,0.925781 -1.22741,0.77568 -1.099369,0.961688 0.681641,0.992188 1.2049,0.0206 2.472879,-0.410512 2.818359,-0.957032 0.39987,-0.63257 0.02007,-0.953656 -0.707031,-0.960937 z M 78,35.59375 c -2.40333,0.0384 -2.479132,0.136405 -0.701172,0.921875 2.76596,1.22199 4.72569,1.242286 4,0.04102 C 80.964508,36.003221 79.48036,35.57005 78,35.59375 Z m 12.554688,1.056641 c -0.557811,-0.006 -0.457395,0.658213 0.228515,1.501953 0.67628,0.83191 1.680489,1.517437 2.230469,1.523437 0.5578,0.006 0.455441,-0.658213 -0.230469,-1.501953 -0.67628,-0.8319 -1.678545,-1.517437 -2.228515,-1.523437 z M 41.759766,38.15625 c -1.19436,-0.0121 -4.925547,3.869149 -4.998047,5.199219 -0.0933,1.71177 1.965681,0.569432 3.988281,-2.210938 1.23436,-1.69679 1.669376,-2.981281 1.009766,-2.988281 z m 25.080078,0.253906 c -1.13241,-0.0115 -2.064313,0.428546 -2.070313,0.978516 -0.006,0.54997 0.639141,1.007625 1.431641,1.015625 0.7925,0.008 1.722879,-0.433939 2.068359,-0.980469 0.34548,-0.54652 -0.297287,-1.002172 -1.429687,-1.013672 z m 8.189453,0.09766 c -2.18557,-0.049 -1.361135,1.816774 0.978515,2.214844 1.23543,0.21021 2.459724,0.229599 2.720704,0.04297 0.66829,-0.478 -2.192669,-2.224013 -3.699219,-2.257814 z m -17.205078,0.878907 c -0.612803,0.09364 -1.508317,0.592023 -2.628907,1.486328 -1.790869,1.42921 -1.80068,1.5152 -0.11914,1 1.01067,-0.30967 2.250859,-0.559688 2.755859,-0.554688 0.50498,0.005 0.921735,-0.440264 0.927735,-0.990234 0.0074,-0.723935 -0.322745,-1.035044 -0.935547,-0.941406 z m -41.119141,0.730469 c 3.990278,0.312091 9.911479,3.441351 19.728516,10.046874 3.97411,2.674031 7.690282,5.021207 8.257812,5.216797 0.67033,0.23103 0.562903,1.233822 -0.304687,2.863282 -1.55312,2.91697 -1.272023,2.956419 -18.283203,-2.556641 -14.91856,-4.83487 -19.2699485,-9.025907 -14.361328,-13.835938 0.955059,-0.935879 2.040014,-1.514695 3.365234,-1.697265 0.496954,-0.06846 1.027616,-0.08169 1.597656,-0.03711 z m 70.611328,0.515624 c -0.51751,-0.0137 -0.0744,0.623253 0.984375,1.414063 1.05878,0.79082 2.139774,1.22603 2.402344,0.96875 0.55591,-0.54474 -2.004759,-2.346312 -3.386719,-2.382813 z M 45.96875,41.90625 c -0.936589,-0.04429 -5.274359,4.863031 -5.287109,6.119141 -0.003,0.27103 1.342081,-0.770977 2.988281,-2.316407 1.64621,-1.54546 2.743403,-3.221459 2.439453,-3.724609 -0.02991,-0.04951 -0.07819,-0.07517 -0.140625,-0.07813 z m 38.427734,1.712891 c -0.64266,0.011 -0.301557,0.689522 0.757813,1.507812 2.18657,1.68898 3.539434,1.921838 3.552734,0.611328 0.01,-0.96178 -2.410337,-2.15154 -4.310547,-2.11914 z m -25.457031,0.146484 c -0.176215,0.01847 -0.3884,0.0731 -0.632812,0.164063 -0.8743,0.325369 -1.59461,1.031399 -1.59961,1.568359 -0.0133,1.31433 2.26783,0.513137 2.78125,-0.976563 0.188235,-0.546187 -0.02018,-0.811262 -0.548828,-0.755859 z M 65.75,44.398438 c 1.63266,0.0166 2.964984,0.481269 2.958984,1.03125 -0.006,0.54997 -0.422754,0.995234 -0.927734,0.990234 -0.50499,-0.005 -1.574873,0.234713 -2.376953,0.533203 -0.80208,0.29849 -1.721016,-0.161584 -2.041016,-1.021484 -0.4462,-1.199 0.110229,-1.556303 2.386719,-1.533203 z m -16.830078,1.105468 c -1.437452,0.321618 -5.249644,3.660341 -5.261719,4.845703 -0.0155,1.52675 1.624549,0.861014 4.011719,-1.628906 1.30356,-1.35968 2.070345,-2.779547 1.703125,-3.154297 -0.0904,-0.09225 -0.247775,-0.108445 -0.453125,-0.0625 z m 34.277344,1.072266 c -1.81622,-0.0184 -2.007398,1.615727 -0.273438,2.335937 0.68465,0.28437 1.357091,0.552857 1.494141,0.597657 0.13705,0.0448 0.257625,-0.593009 0.265625,-1.417969 0.008,-0.82495 -0.661378,-1.507625 -1.486328,-1.515625 z M 51.84375,48.4375 c -1.295344,0.226722 -4.202825,3.544356 -4.21875,5.115234 -0.006,0.61404 1.214591,-0.0845 2.712891,-1.552734 1.4983,-1.46822 2.375528,-3.023511 1.949218,-3.457031 -0.106115,-0.10791 -0.25831,-0.137858 -0.443359,-0.105469 z m -24.214844,1.574219 c -0.53272,-0.005 -0.976375,0.665274 -0.984375,1.490234 -0.008,0.82496 0.162776,1.501906 0.378907,1.503906 0.216149,0.002 0.657481,-0.668494 0.982421,-1.490234 0.32493,-0.82175 0.155747,-1.498906 -0.376953,-1.503906 z m 4.404297,1.423828 c -0.119583,-0.0036 -0.250317,0.03361 -0.388672,0.117187 -0.55342,0.33434 -1.013484,1.284415 -1.021484,2.109375 -0.008,0.82497 0.438767,1.224945 0.992187,0.890625 0.55342,-0.33431 1.013485,-1.282461 1.021485,-2.107422 0.006,-0.618727 -0.244766,-0.999092 -0.603516,-1.009765 z m 39.388672,0.08594 c 2.786053,0.04394 4.343742,0.486033 5.880859,1.515625 2.43362,1.6301 2.51347,1.883709 0.9375,3.011719 -1.24258,0.8894 -2.8563,0.963941 -5.80664,0.269531 -10.9662,-2.58107 -20.644455,7.49309 -17.052735,17.75 1.01604,2.90153 0.969428,3.696468 -0.289062,4.929688 -1.3271,1.30045 -1.698751,0.938094 -3.207031,-3.134766 -2.93152,-7.9161 -0.720139,-15.604153 6.013672,-20.908203 3.165439,-2.49333 4.923403,-3.064822 10.283203,-3.351562 1.246387,-0.06668 2.31155,-0.09668 3.240234,-0.08203 z m -34.408203,1.964844 c -0.119402,-0.0036 -0.250317,0.03361 -0.388672,0.117188 -0.55342,0.33433 -1.013484,1.282461 -1.021484,2.107422 -0.008,0.82497 0.436814,1.226898 0.990234,0.892578 0.55342,-0.33433 1.013484,-1.282462 1.021484,-2.107422 0.006,-0.618728 -0.243357,-0.999097 -0.601562,-1.009766 z m 4.443359,1.738281 c -0.842042,0.175245 -1.8636,1.342925 -1.875,2.46875 -0.008,0.7925 0.387786,1.444219 0.878907,1.449219 1.01364,0.0103 2.424745,-3.020099 1.734374,-3.724609 -0.196657,-0.20069 -0.4576,-0.251775 -0.738281,-0.19336 z m 114.947269,1.31836 c 0.1885,0.10745 0.18532,0.841407 0.16797,2.304687 -0.0197,1.63476 -0.49505,4.564966 -1.05665,6.509766 -1.19989,4.15529 -3.54818,7.603457 -4.29687,6.310547 -0.74098,-1.27958 2.04233,-11.116116 3.86719,-13.666016 0.74893,-1.0465 1.12987,-1.566434 1.31836,-1.458984 z m 34.79297,1.128906 c 1.23722,0.0125 1.11629,0.584381 -0.63672,2.994141 -1.99738,2.74568 -5.04079,4.040388 -5.02149,2.136718 0.0147,-1.45236 4.0887,-5.146759 5.65821,-5.130859 z m -22.11915,0.197266 c 0.0693,0.03771 0.12789,0.117452 0.17383,0.242187 0.23616,0.6411 -0.32722,3.671718 -1.25195,6.736328 -0.92472,3.06459 -1.82232,5.572313 -1.99414,5.570313 -0.17182,-0.002 -0.56116,-0.996135 -0.86524,-2.208985 -0.55295,-2.205712 2.89821,-10.905542 3.9375,-10.339843 z M 17.710938,59 c 2.798329,0.0272 6.664386,0.553458 12.341796,1.585938 12.36501,2.248669 11.994737,2.067636 11.847657,5.810546 -0.12519,3.18549 -0.253093,3.273291 -5.539063,3.837891 -9.47047,1.0116 -19.355605,1.438918 -21.416016,0.923828 C 9.4861225,69.793433 7.5705638,63.293536 11.777344,60.410156 13.183244,59.446396 14.912607,58.97283 17.710938,59 Z m 66.259765,1.583984 c 3.63997,0.0369 5.305063,8.899592 2.939453,15.644532 -2.02523,5.77441 -3.732324,7.789778 -9.121094,10.761718 -6.96071,3.8389 -19.261169,2.176154 -18.25,-2.466796 0.384011,-1.76323 1.079904,-1.796958 6.777344,-0.335938 2.01252,0.51604 4.9771,0.523235 7,0.01563 7.44341,-1.86767 10.758324,-7.904691 9.746094,-17.744141 -0.5027,-4.88651 -0.348187,-5.88781 0.908203,-5.875 z m -45.443359,2.539063 c -0.54997,-0.006 -1.011491,1.115304 -1.025391,2.490234 -0.0139,1.37493 0.424639,2.503766 0.974609,2.509766 0.549971,0.006 1.011391,-1.113351 1.025391,-2.488281 0.014,-1.37493 -0.424629,-2.505719 -0.974609,-2.511719 z m 6.234375,0.271484 c 0.64576,0.10089 1.337905,1.340416 1.541015,3.634766 0.20774,2.34677 -0.128083,3.171856 -1.283203,3.160156 -1.12691,-0.0114 -1.553543,-1.014736 -1.527343,-3.597656 0.0229,-2.25904 0.623781,-3.298156 1.269531,-3.197266 z M 25.794922,64.375 c -0.105983,0.10492 -0.180798,0.455416 -0.210938,1.035156 -0.0541,1.05367 0.176079,1.645316 0.511719,1.316406 0.33557,-0.3289 0.379236,-1.191245 0.09766,-1.916015 -0.1553,-0.39981 -0.292455,-0.540467 -0.398437,-0.435547 z m 4.183594,0.123047 c -0.179791,-0.06941 -0.311841,0.503959 -0.322266,1.535156 -0.014,1.37493 0.205864,1.94051 0.490234,1.255859 0.28441,-0.68465 0.295801,-1.809719 0.02539,-2.5 -0.06761,-0.17257 -0.133429,-0.26788 -0.193358,-0.291015 z m 4.148437,0.0039 c -0.359805,0.08811 -0.620281,0.662419 -0.628906,1.511719 -0.0115,1.1324 0.428545,2.064312 0.978515,2.070312 0.549971,0.006 1.007626,-0.63914 1.015626,-1.43164 0.008,-0.7925 -0.431986,-1.72288 -0.978516,-2.06836 -0.13663,-0.08637 -0.266784,-0.1114 -0.386719,-0.08203 z m 93.691407,0.634766 c 1.26909,0.221228 0.78931,4.067096 -1.86719,9.625 -1.37355,2.87371 -2.99855,5.21889 -3.61133,5.21289 -1.84078,-0.0187 -0.32989,-8.579964 2.10547,-11.927734 1.13641,-1.56217 2.05226,-2.452244 2.72266,-2.777344 0.2514,-0.12191 0.46909,-0.164416 0.65039,-0.132812 z m -30.164063,3.697265 c 0.168145,0.0021 0.302237,0.04457 0.390625,0.134766 0.21888,0.22336 -0.943905,1.377413 -2.583984,2.564453 -2.133061,1.54382 -2.810034,1.722203 -2.376954,0.626953 0.545965,-1.380715 3.393299,-3.34107 4.570313,-3.326172 z m -52.322266,2.359375 c 0.50576,0.005 1.36308,1.32703 1.90625,2.9375 1.32833,3.93855 1.595093,3.731894 -16.529297,12.751953 -13.0333,6.486351 -15.593056,6.995812 -18.785156,3.738282 -4.5228499,-4.61556 -1.101796,-9.942798 8.964844,-13.955078 3.4808,-1.38734 21.846809,-5.498957 24.443359,-5.472657 z m 62.664059,0.634766 c 1.93967,0.0197 4.69025,2.657398 6.43946,6.173828 2.5978,5.22231 2.01645,6.817336 -1.3711,3.759766 -2.4564,-2.21713 -6.39996,-9.947094 -5.06836,-9.933594 z m -64.687496,1.320313 c -0.108906,-0.01497 -0.207411,0.01374 -0.289063,0.09375 -0.28589,0.280199 -0.269793,1.506016 0.03516,2.722656 0.589329,2.35074 2.322359,3.082055 2.318359,0.978515 -0.0035,-1.463945 -1.302116,-3.690156 -2.064453,-3.794921 z M 39.6875,75.613281 c -0.29016,0.0896 -0.302437,0.925989 0.164062,2.449219 0.35068,1.14506 1.047699,2.086797 1.548829,2.091797 0.50111,0.005 0.410425,-1.124193 -0.203125,-2.507813 -0.65016,-1.46646 -1.219596,-2.122823 -1.509766,-2.033203 z m -3.730469,0.810547 c -0.09394,-0.05036 -0.178602,-0.04656 -0.248047,0.02148 -0.27777,0.2722 -0.20717,1.465694 0.15625,2.652344 0.36343,1.18665 0.888236,1.93431 1.166016,1.66211 0.27777,-0.2722 0.20717,-1.465694 -0.15625,-2.652344 -0.272565,-0.88998 -0.636142,-1.532521 -0.917969,-1.683594 z M 31.9375,78.382812 c -0.09394,-0.05036 -0.178602,-0.04656 -0.248047,0.02148 -0.27777,0.2722 -0.20717,1.465694 0.15625,2.652344 0.36342,1.18665 0.888236,1.934309 1.166016,1.662109 0.27777,-0.2722 0.20718,-1.465694 -0.15625,-2.652344 -0.272565,-0.88998 -0.636142,-1.532521 -0.917969,-1.683594 z m -4.324219,1.78711 c -0.16065,-0.03705 -0.219181,0.275791 -0.238281,0.925781 -0.0256,0.87063 0.250351,1.8855 0.613281,2.255859 1.20757,1.232331 1.534503,-0.141386 0.476563,-2.003906 -0.42815,-0.753765 -0.690913,-1.140688 -0.851563,-1.177734 z m 140.710939,0.271484 c 4.97894,0.0505 11.01214,2.263283 10.99414,4.033203 -0.0135,1.32751 -10.21709,1.05638 -12.93359,-0.34375 -4.40532,-2.27056 -3.62974,-3.745953 1.93945,-3.689453 z m -78.48047,2.251953 c 1.701872,-0.07295 4.848256,0.487385 6.972656,1.486329 2.87385,1.350909 2.893791,1.401518 0.488282,1.324218 -3.88788,-0.12494 -7.399651,-0.938415 -8.431641,-1.953125 -0.551306,-0.542074 -0.05042,-0.813655 0.970703,-0.857422 z m -66.197266,0.484375 c -0.20637,-0.02825 -0.325125,0.112497 -0.328125,0.425782 -0.006,0.56831 0.287461,1.336671 0.650391,1.707031 0.36292,0.37037 0.894601,0.443379 1.181641,0.162109 0.28704,-0.28126 -0.004,-1.049621 -0.648438,-1.707031 -0.35512,-0.3624 -0.649099,-0.559642 -0.855469,-0.587891 z M 124.3125,84.841797 c 2.75213,-0.16267 5.00109,0.04071 4.99609,0.453125 -0.005,0.41248 -1.54586,0.735897 -3.42578,0.716797 -1.87992,-0.0191 -4.13253,0.23163 -5.00586,0.55664 -0.87333,0.325 -1.58412,0.135808 -1.57812,-0.419921 0.006,-0.55573 2.26154,-1.143961 5.01367,-1.306641 z m -36.009766,0.789062 c 0.82981,0.008 0.22468,1.188425 -1.53125,2.984375 -2.87608,2.94167 -4.537684,3.722384 -4.521484,2.126954 0.0133,-1.3065 4.537354,-5.126729 6.052734,-5.111329 z m 16.998046,0.292969 c 0.63439,0.0064 1.2681,0.07638 1.74805,0.207031 0.9599,0.26128 0.16904,0.458954 -1.75586,0.439453 -1.9249,-0.0195 -2.70914,-0.232859 -1.74414,-0.474609 0.4825,-0.120875 1.11756,-0.17823 1.75195,-0.171875 z m -11.892577,0.757813 c 1.58592,0.0161 2.879953,0.28306 2.876953,0.59375 -0.003,0.31069 -2.307044,2.763328 -5.121094,5.449218 -5.51349,5.26237 -6.46144,5.693051 -7.33789,3.337891 -0.93018,-2.49951 6.134431,-9.415859 9.582031,-9.380859 z M 40.638672,87.40625 c -0.130393,0.05377 -0.03956,0.412688 0.216797,1.101562 0.33725,0.906261 1.014719,1.651251 1.505859,1.65625 1.28589,0.013 1.111165,-0.56773 -0.609375,-2.02539 -0.63128,-0.53482 -0.982889,-0.786193 -1.113281,-0.732422 z m 74.746098,0.498047 c 1.61174,0.0164 0.92908,1.875546 -2.36329,6.447265 -3.5129,4.877961 -4.86313,5.581715 -4.83203,2.515626 0.0206,-2.02631 5.60215,-8.979091 7.19532,-8.962891 z m 6.78906,0.429687 c 2.61072,0.08472 10.37398,3.366739 13.10742,5.751954 l 3.4082,2.974609 -3,-0.01172 c -1.65002,-0.006 -4.79279,-0.856172 -6.98242,-1.888672 -3.88508,-1.83199 -8.20875,-5.770317 -7.30664,-6.654297 0.13298,-0.130311 0.40048,-0.183977 0.77344,-0.171874 z m 69.04297,0.339844 c -0.58243,-0.006 -0.78549,0.442674 -0.45118,0.996094 0.33432,0.55342 0.8063,1.007766 1.04883,1.009766 0.24253,0.002 0.44517,-0.444171 0.45117,-0.994141 0.006,-0.54997 -0.46639,-1.005719 -1.04882,-1.011719 z m -86.97461,0.25 c -0.0421,-0.12168 -0.6056,0.164434 -1.73047,0.740234 -1.24403,0.6368 -2.26649,1.592427 -2.27149,2.123047 -0.0144,1.42057 0.46703,1.207654 2.60743,-1.154297 0.95817,-1.057339 1.43666,-1.587304 1.39453,-1.708984 z m -67.013674,0.1875 c -1.32432,-0.0134 -1.224059,1.342314 0.207031,2.802734 1.86832,1.90665 2.965004,1.433201 1.808594,-0.78125 -0.5775,-1.105919 -1.485005,-2.016484 -2.015625,-2.021484 z m -4.429688,3.369141 c -0.122343,-0.03471 -0.210609,-0.02465 -0.263672,0.02734 -0.21225,0.20799 0.155102,1.086433 1.294922,2.445313 0.96095,1.14563 1.957114,1.875607 2.214844,1.623047 0.25774,-0.25256 -0.341721,-1.373385 -1.332031,-2.490234 -0.880988,-0.993563 -1.547034,-1.501356 -1.914063,-1.605469 z m 27.009766,2.898437 c 0.577306,-0.09485 1.055484,0.432963 1.044922,1.472656 -0.008,0.824961 -0.05226,1.463822 -0.09766,1.419922 -0.0454,-0.0439 -0.645914,-0.312106 -1.333984,-0.597656 -0.68803,-0.28555 -0.991751,-0.927894 -0.675781,-1.427734 0.334601,-0.529309 0.716116,-0.810281 1.0625,-0.867188 z m -30.892578,0.648438 c -0.56787,-0.006 -0.223629,0.902185 0.763672,2.015625 0.9873,1.11344 2.013499,1.809255 2.28125,1.546875 0.678709,-0.66509 -1.786732,-3.5497 -3.044922,-3.5625 z M 103.375,96.869141 c -0.99787,0.03442 -3.20755,2.05924 -3.21875,3.160159 -0.006,0.56787 0.90022,0.22362 2.01367,-0.763675 1.11344,-0.9873 1.81121,-2.0135 1.54883,-2.28125 -0.0831,-0.08484 -0.2012,-0.120151 -0.34375,-0.115234 z m -39.300781,0.515625 c -0.60887,-0.006 -0.855085,0.66597 -0.546875,1.49414 0.36323,0.97606 -0.04409,1.504904 -1.158203,1.503904 -1.4505,-0.002 -1.489537,0.14626 -0.253907,0.94531 0.96558,0.62444 1.726399,0.5403 2.236328,-0.24414 1.136921,-1.748986 0.991827,-3.686314 -0.277343,-3.699214 z m -39.160157,1.603515 c -0.422339,-0.004 -0.214832,0.896986 0.460938,2.003909 0.67577,1.10691 1.573754,2.01748 1.996094,2.02148 0.42234,0.004 0.214832,-0.89895 -0.460938,-2.00586 -0.67577,-1.106918 -1.573753,-2.015529 -1.996094,-2.019529 z m 74.609376,1.255859 -4.730469,4.41016 c -2.60106,2.42575 -4.732318,4.76765 -4.736328,5.20312 -0.0152,1.49982 0.819278,0.78453 5.136718,-4.40625 z m -31.220704,0.19141 c -0.762832,0.0781 -2.1485,2.17035 -2.140625,3.4707 0.003,0.55007 0.671845,0.13955 1.484375,-0.91211 0.81254,-1.05166 1.235634,-2.1587 0.939454,-2.46094 -0.07766,-0.0792 -0.174228,-0.10881 -0.283204,-0.0976 z m -18.291015,0.83007 c 0.12482,0.0377 -0.163624,0.58038 -0.746094,1.66407 -1.29948,2.4176 -3.180316,3.894 -3.166016,2.48633 0.005,-0.49718 0.983229,-1.75139 2.173829,-2.78711 1.074849,-0.93503 1.613471,-1.40097 1.738281,-1.36329 z m 7.982422,0.13672 c -1.84663,-0.10734 -7.065878,5.32126 -9.460938,9.83985 -1.37198,2.58839 -1.383596,2.97127 -0.09766,2.98437 0.81175,0.008 1.946447,-0.76791 2.523437,-1.72461 0.90237,-1.49615 1.181827,-1.53145 1.998047,-0.25781 0.52193,0.8144 1.314549,1.09822 1.761719,0.63086 0.44717,-0.46734 0.253329,-1.05609 -0.431641,-1.30859 -1.26005,-0.46447 -1.756771,-3.29911 -0.576171,-3.28711 0.35184,0.004 1.228388,0.80161 1.949218,1.77148 1.24818,1.67942 1.314128,1.67992 1.361328,0.0137 0.0273,-0.96227 -0.401202,-1.75376 -0.951172,-1.75976 -0.54997,-0.006 -0.992374,-0.68482 -0.984374,-1.50977 0.008,-0.82496 0.465654,-1.49623 1.015624,-1.49023 0.549971,0.006 1.005672,-0.62712 1.013672,-1.40625 0.008,-0.77912 0.579252,-1.63778 1.269532,-1.90821 0.79111,-0.30991 0.646615,-0.52759 -0.390625,-0.58789 z m 58.976559,1.00977 c -0.0724,-0.002 -0.13787,0.0428 -0.19922,0.13867 -0.2454,0.38342 -0.42287,1.58343 -0.69921,3.86133 -0.33322,2.74676 -1.20315,6.04912 -1.9336,7.33789 -1.35636,2.39308 -1.23094,9.09017 0.23438,12.51172 0.69475,1.62227 0.48092,1.77512 -1.5918,1.13281 -1.31663,-0.40801 -3.69408,-1.38492 -5.2832,-2.16992 -3.43054,-1.69464 -3.8971,-1.76153 -3.09961,-0.44141 0.34409,0.56959 -0.0575,0.73544 -0.93946,0.38672 -0.84706,-0.33494 -1.30895,-0.97443 -1.02734,-1.41992 0.28162,-0.4455 -0.70024,-1.78287 -2.18164,-2.97266 -2.43331,-1.95432 -2.561519,-2.37388 -1.324219,-4.34375 1.333499,-2.12304 1.316439,-2.13365 -0.634765,-0.43554 -1.93129,1.6808 -2.139865,1.63329 -5.765625,-1.3086 -5.64269,-4.57835 -5.662304,-3.649 -0.0332,1.55274 l 4.953124,4.57812 -4.318359,-2.66406 c -7.47534,-4.61217 -5.473471,-2.12666 3.167969,3.93359 7.552735,5.29673 16.364335,9.03493 19.148435,8.125 0.70965,-0.23193 1.06562,1.67704 1.01172,5.42188 -0.0583,4.05103 0.54871,6.98468 2.03125,9.80664 2.75407,5.24225 13.48712,16.09835 15.00781,15.17969 0.80279,-0.48496 0.43603,-1.67264 -1.19922,-3.88282 -2.32494,-3.14235 -4.91771,-9.60315 -6.00976,-14.97265 -0.40943,-2.01313 -0.16948,-2.75104 0.89257,-2.74024 4.76646,0.0484 10.78279,5.00807 12.38477,10.21094 0.60905,1.97806 2.46359,4.92284 4.12305,6.54297 1.65947,1.62014 3.90795,4.41621 4.99609,6.21484 1.08815,1.79863 2.21914,3.27239 2.51172,3.27539 0.93935,0.01 -0.74335,-9.37774 -2.24219,-12.50976 -0.797,-1.66541 -3.0878,-4.51965 -5.08984,-6.3418 -3.42067,-3.11332 -3.47257,-3.24985 -0.87891,-2.27539 4.50619,1.69299 13.06074,8.82422 17.68555,14.74219 5.69632,7.2891 8.0023,7.65984 3.80273,0.61133 -6.08277,-10.20926 -18.63677,-18.34689 -33.73828,-21.86719 -5.11882,-1.19325 -7.90777,-2.37935 -8.7207,-3.71094 -1.35635,-2.2217 -0.20879,-2.57279 2.87695,-0.88086 1.19361,0.65446 1.9276,0.68645 1.9336,0.0859 0.005,-0.53226 -0.89369,-1.26407 -1.99805,-1.62695 -2.60356,-0.8555 -1.54598,-2.51227 1.58398,-2.48047 3.40617,0.0345 11.43188,2.37053 11.42188,3.32422 -0.004,0.4359 -2.37038,0.7752 -5.25781,0.7539 -3.7578,-0.0272 -4.82651,0.24244 -3.75977,0.94727 2.03105,1.34236 8.63173,1.33743 11.31641,-0.008 4.93494,-2.47242 10.39704,-9.09711 6.00976,-7.28907 -6.38353,2.63072 -8.85536,3.11649 -11.20117,2.19727 -1.37042,-0.53701 -5.46781,-1.03437 -9.10547,-1.10547 l -6.61328,-0.13086 1.07227,-3.86328 c 1.18443,-4.26343 -0.25418,-16.33286 -2.41407,-20.25 -0.41013,-0.7438 -0.68899,-1.17466 -0.90625,-1.18164 z m -56.849606,0.93359 c -0.54997,-0.006 -1.003766,0.43831 -1.009766,0.98828 -0.006,0.54996 0.440264,1.00572 0.990234,1.01172 0.54998,0.006 1.003766,-0.44026 1.009766,-0.99023 0.006,-0.54997 -0.440264,-1.00377 -0.990234,-1.00977 z m 22.082031,0.22266 c 1.55983,0.0158 0.966093,4.24469 -0.898437,6.39648 -1.693521,1.95447 -1.692454,1.98219 0.03516,0.66993 1.33792,-1.01628 2.095292,-1.0759 2.919922,-0.23438 0.82461,0.84152 0.744396,1.24823 -0.308594,1.57031 -8.01845,2.45262 -10.099501,0.78631 -5.744141,-4.59961 1.69474,-2.09574 3.492334,-3.80773 3.996094,-3.80273 z m 18.111325,2.66602 c -0.0444,-0.0128 -0.11713,0.002 -0.2207,0.0449 -0.82856,0.34656 -2.804995,2.15234 -4.390625,4.01367 -3.90398,4.58277 -2.969066,4.27428 1.902344,-0.62695 1.922069,-1.93384 3.019611,-3.34206 2.708981,-3.43164 z m -32.287106,2.1914 c 0.195863,0.006 0.416489,0.0475 0.654297,0.12305 0.95124,0.30204 2.193121,1.14679 3.363281,2.41797 1.27774,1.38804 1.906567,2.50181 1.398437,2.47461 -1.69632,-0.0907 -6.392812,-3.0776 -6.382812,-4.0586 0.0067,-0.67255 0.379208,-0.97512 0.966797,-0.95703 z m 50.408206,2.01172 0.74414,4.44531 c 0.40847,2.44508 0.37889,5.78927 -0.0645,7.43164 -1.0065,3.72804 -2.77717,4.41741 -3.55664,1.38477 -0.98696,-3.83982 -0.65599,-6.74236 1.15235,-10.08008 z m -66.363284,3.80469 c -0.209644,-0.0224 -0.440016,0.0598 -0.666016,0.28125 -0.3334,0.32671 -0.259617,1.1678 0.164062,1.86914 0.619651,1.02571 0.856059,1.03024 1.205079,0.0176 0.373545,-1.08388 -0.07419,-2.10062 -0.703125,-2.16797 z m -11.513672,0.26758 c 0.788855,-0.47619 -0.499042,1.90864 -4.982422,9.83789 -2.70572,4.7853 -5.13901,8.69831 -5.40625,8.69531 -0.26724,-0.003 1.149277,-3.01113 3.148437,-6.68555 1.99917,-3.67441 3.639532,-7.05238 3.644532,-7.50586 0.005,-0.45347 0.97477,-1.80914 2.15625,-3.01172 0.683122,-0.69532 1.176501,-1.17135 1.439453,-1.33007 z m 6.535156,0.67578 c -0.168491,-0.0392 -0.316729,-0.006 -0.402344,0.10742 -0.17123,0.22745 -1.666559,2.19951 -3.324218,4.38281 -3.76577,4.95985 -11.613066,19.65656 -11.634766,21.79102 -0.009,0.87518 0.321765,1.58322 0.734375,1.57422 0.96772,-0.0219 4.316637,-6.56587 4.335937,-8.47266 0.008,-0.80236 0.355765,-1.45517 0.771485,-1.45117 0.41572,0.004 1.400583,-1.44698 2.189453,-3.22657 0.78885,-1.77958 3.018448,-5.60123 4.955078,-8.49218 1.93663,-2.89096 3.242554,-5.54148 2.902344,-5.88867 -0.17011,-0.17359 -0.358853,-0.28499 -0.527344,-0.32422 z m 28.214844,1.01757 -2.414063,0.55469 c -1.32782,0.30549 -4.178914,0.85801 -6.333984,1.22657 -3.5611,0.60903 -3.852292,0.49775 -3.201172,-1.21485 0.76197,-2.00415 -6.681691,5.73089 -8.587891,8.92383 -0.95271,1.59581 -0.862918,1.79141 0.576172,1.25586 0.93756,-0.34891 3.152045,-0.61956 4.921875,-0.60156 3.63208,0.0369 10.199046,-3.76986 13.103516,-7.59571 z m 6.228515,0.41993 c -1.198343,0.38073 -4.173461,3.60972 -12.824218,13 -1.48513,1.61207 -2.477018,3.66687 -2.236329,4.62695 0.64935,2.59019 -2.571401,16.19071 -4.269531,18.0293 -0.81497,0.88236 -3.572423,2.19765 -6.126953,2.92382 -4.97818,1.41516 -14.232858,8.46414 -16.392578,12.48633 -1.57032,2.92451 -1.179653,2.97071 5.623047,0.65235 6.79723,-2.31649 11.030422,-5.41362 12.794922,-9.35938 0.77246,-1.72738 1.41684,-2.59931 1.43164,-1.9375 0.0371,1.65564 -2.070138,6.12625 -4.730468,10.0332 -1.22122,1.79348 -2.530523,4.60222 -2.908203,6.24219 -0.482231,2.094 -1.632685,3.36498 -3.865235,4.27149 -1.74846,0.70994 -5.740374,3.5849 -8.871094,6.38867 -3.13071,2.80377 -6.535806,5.09048 -7.566406,5.08008 -1.0306,-0.0105 -4.352109,0.89528 -7.380859,2.01367 -3.02873,1.11841 -6.974148,2.50502 -8.767578,3.08008 -3.53651,1.13396 -4.335626,3.24958 -1.541016,4.08008 0.95966,0.28515 5.778924,0.44215 10.708984,0.34765 l 8.962891,-0.17187 1.291016,-3.07422 c 1.8783,-4.47294 14.992134,-17.22045 16.927734,-16.45508 0.85323,0.33738 1.542203,1.37553 1.533203,2.30664 -0.009,0.9311 0.375276,2.12496 0.853516,2.65234 0.47823,0.52737 1.394219,2.66214 2.037109,4.7461 0.93887,3.04345 2.135245,4.29129 6.078125,6.33984 6.27427,3.25981 7.159368,1.78599 3.429688,-5.7207 -1.45518,-2.92882 -2.963863,-6.00502 -3.351563,-6.83399 -0.38771,-0.82898 -2.37086,-2.62736 -4.40625,-3.99804 -4.25925,-2.8683 -4.230346,-3.95266 0.339844,-12.96485 3.30273,-6.51284 5.415479,-7.75583 4.537109,-2.66992 -0.63096,3.65333 0.294962,5.50994 6.982422,13.99805 7.12756,9.04671 7.36612,9.27247 8.53711,8.125 0.83762,-0.82079 0.219216,-3.49228 -2.371094,-10.24219 -1.92751,-5.02277 -3.500141,-9.65066 -3.494141,-10.28516 0.006,-0.63451 -1.542479,-3.09255 -3.443359,-5.46093 l -3.457032,-4.30469 1.94336,-4.4082 c 1.06806,-2.42347 2.443994,-7.43246 3.058594,-11.13282 0.83699,-5.0393 1.957353,-7.82177 4.464843,-11.08203 3.83986,-4.99266 4.569837,-5.26275 5.753907,-2.13867 0.47087,1.24234 2.904403,5.42615 5.408203,9.29883 2.50381,3.87267 4.805481,8.7265 5.113281,10.78515 1.00594,6.72786 2.620149,2.98855 2.105469,-4.87695 -0.55679,-8.5092 -3.3725,-15.43166 -7.5625,-18.5957 -1.533,-1.15763 -3.047398,-3.19223 -3.367188,-4.52344 -0.15502,-0.6453 -0.272956,-1.13037 -0.566406,-1.26953 -0.110045,-0.0522 -0.244824,-0.0563 -0.416016,-0.002 z m -13.02539,2.5 c 2.559473,-0.26859 1.780962,1.93789 -1.835938,3.55078 -5.39438,2.40552 -8.780172,2.89559 -8.763672,1.26758 0.0134,-1.32184 2.512265,-2.54332 9.296875,-4.54297 0.50334,-0.14835 0.937096,-0.23702 1.302735,-0.27539 z m 29.375,1.60547 c 0.58243,0.006 1.054828,0.46173 1.048828,1.01171 -0.006,0.54998 -0.208652,0.99614 -0.451172,0.99415 -0.24253,-0.002 -0.714508,-0.45635 -1.048828,-1.00977 -0.33433,-0.55342 -0.131258,-1.00209 0.451172,-0.99609 z m -15.238281,1.92578 c 1.586843,-0.24159 6.137049,5.96711 7.193359,10.05468 0.59,2.28316 0.870357,4.34944 0.623047,4.5918 -0.70574,0.69155 -6.11838,-6.85261 -7.53711,-10.50586 -0.70383,-1.81237 -0.953147,-3.61344 -0.554687,-4.0039 0.07754,-0.076 0.169601,-0.12062 0.275391,-0.13672 z m -37.445313,2.54101 c -0.96962,-0.01 -1.421767,0.76535 -7.179687,12.30664 -2.38614,4.78284 -4.346469,9.43355 -4.355469,10.33594 -0.0246,2.42406 1.564352,0.35596 2.951172,-3.8418 0.65417,-1.98004 2.747123,-6.13015 4.652343,-9.22265 3.82051,-6.20135 5.201951,-9.56523 3.931641,-9.57813 z m -42.65625,2.54688 3.0097656,1.49804 c 1.75144,0.87206 5.3428324,1.61364 7.9824214,1.64844 3.46726,0.0462 4.379803,0.33023 3.289063,1.01953 -2.96632,1.8746 -8.7507744,1.04636 -11.6777344,-1.67187 L 2.546875,127.81836 Z M 118.5625,133.9707 c 1.54499,0.0804 4.49942,5.41146 6.16797,11.13086 2.78318,9.54009 -0.93664,6.44363 -4.99024,-4.15429 -2.09322,-5.47264 -2.35763,-7.03807 -1.17773,-6.97657 z m -116.015625,4.31641 2.625,1.08984 c 2.14674,0.89148 4.988423,1.42512 6.314453,1.18555 1.61632,-0.29201 2.075511,-0.10872 1.394531,0.55859 -2.02936,1.9886 -6.198824,1.55781 -8.927734,-0.92382 l -1.40625,-1.2793 z m 28.404297,5.76367 c -0.41572,-0.004 -1.30442,1.22469 -1.97461,2.73047 -2.23805,5.02849 -7.513987,21.1815 -7.492187,22.93945 0.0285,2.29886 2.679966,-3.63901 5.228516,-11.71093 1.12517,-3.56377 2.706432,-7.89217 3.513671,-9.61719 1.66774,-3.5639 1.79625,-4.3309 0.72461,-4.3418 z m 111.666018,4.35547 c 0.4777,-0.0296 1.64756,1.12562 3.11133,3.49023 1.07851,1.7418 1.56062,3.40811 1.07226,3.70313 -0.48836,0.29501 -1.90369,-1.31305 -3.14453,-3.57422 -1.30306,-2.37458 -1.51675,-3.58951 -1.03906,-3.61914 z M 6.65625,148.80469 c 2.49059,0.0253 3.870164,0.43414 3.490234,1.03515 -0.3454796,0.54652 -1.9247752,0.98095 -3.5097652,0.96485 -1.585,-0.0161 -3.1559144,-0.48174 -3.4902344,-1.03516 -0.36766,-0.60859 1.0191856,-0.99014 3.5097656,-0.96484 z m 27.056641,1.27539 c -0.40995,-0.004 -1.269737,1.11189 -1.910157,2.48047 -0.6404,1.36857 -0.836276,2.48822 -0.435546,2.48828 0.400739,-2.2e-4 1.258563,-1.11823 1.908203,-2.48242 0.64963,-1.36419 0.84744,-2.48233 0.4375,-2.48633 z m 21.001953,7.49219 c 0.235731,-0.0661 0.400162,-0.0662 0.474609,0.01 1.26079,1.28662 -0.948037,4.61037 -3.966797,5.96875 -1.77548,0.79893 -4.307976,1.76727 -5.628906,2.15234 -2.36298,0.68887 -2.371471,0.66924 -0.488281,-1.2207 2.781607,-2.79155 7.959256,-6.44725 9.609375,-6.91015 z M 5.125,157.78906 c 1.45129,0.0147 2.2859375,0.45596 1.9296875,1.01953 -0.34549,0.54653 -1.5008694,0.98541 -2.5683594,0.97461 -1.06748,-0.0108 -1.9356775,-0.46955 -1.9296875,-1.01953 0.006,-0.54997 1.1609694,-0.98891 2.5683594,-0.97461 z m 60.466797,2.11524 1.880859,2.49804 c 1.03388,1.37417 2.069745,3.40963 2.302735,4.52344 0.23299,1.11381 0.745845,2.81469 1.140625,3.78125 1.09624,2.68391 -1.073205,2.09807 -3.396485,-0.91797 -1.22853,-1.59486 -2.021728,-4.10072 -1.986328,-6.27148 z m -46.097656,5.03125 c -0.54996,-0.006 -1.006625,0.69141 -1.015625,1.54883 -0.009,0.85748 0.436814,1.28549 0.990234,0.95117 0.55342,-0.33432 1.010625,-1.03131 1.015625,-1.54883 0.005,-0.51751 -0.440264,-0.94517 -0.990234,-0.95117 z m -0.982422,3.99023 c -0.58243,-0.006 -1.06236,0.44027 -1.06836,0.99024 -0.006,0.54997 0.189111,1.0019 0.431641,1.0039 0.24253,0.002 0.722879,-0.44176 1.068359,-0.98828 0.34548,-0.54653 0.15079,-0.99986 -0.43164,-1.00586 z m -2.109375,4.97852 c -0.54997,-0.006 -1.003766,0.44025 -1.009766,0.99023 -0.006,0.54997 0.440264,1.00377 0.990234,1.00977 0.549981,0.006 1.003766,-0.4383 1.009766,-0.98828 0.006,-0.54997 -0.440264,-1.00572 -0.990234,-1.01172 z m 40.773437,7.92968 c 0.134437,-0.0362 0.326761,0.003 0.580078,0.10352 1.06978,0.42301 2.335904,2.40545 4.220703,6.61133 0.168591,0.37623 -0.103775,0.93053 -0.603515,1.23242 -1.17371,0.70904 -2.554915,-1.13285 -3.859375,-5.14844 -0.616658,-1.89829 -0.7412,-2.69033 -0.337891,-2.79883 z m -47.5878904,1.38086 c 0.1059788,-0.10446 0.2428825,0.037 0.3984375,0.4375 0.2816099,0.72476 0.2379339,1.58711 -0.097656,1.91602 -0.33565,0.3289 -0.5658188,-0.26275 -0.5117188,-1.31641 0.0299,-0.5822 0.1049588,-0.93264 0.2109373,-1.03711 z m -2.5800781,6.76563 c -0.1296075,-0.075 -0.3718138,0.20849 -0.7773437,0.82226 -0.54151,0.81955 -0.9593876,2.83986 -0.9296876,4.49024 0.0528,2.94053 0.069506,2.95154 0.8789063,0.50976 0.45428,-1.37046 0.8740406,-3.39076 0.9316406,-4.49023 0.0431,-0.82342 0.026092,-1.257 -0.1035156,-1.33203 z m 24.0390625,2.10937 c 0.338102,-0.004 0.575581,0.0403 0.675781,0.14258 0.21042,0.21474 0.0164,0.97092 -0.43164,1.67969 -0.99263,1.57025 -8.630762,2.65587 -9.425782,1.33984 -0.474407,-0.78532 6.814927,-3.13511 9.181641,-3.16211 z" />
  </g>
</svg>
