<?xml version="1.0" encoding="UTF-8" standalone="no"?>
<!-- Created with Inkscape (http://www.inkscape.org/) -->

<svg
   version="1.1"
   id="svg2"
   width="250"
   height="250"
   viewBox="0 0 250 250"
   sodipodi:docname="corner.svg"
   inkscape:version="1.1.2 (0a00cf5339, 2022-02-04)"
   xmlns:inkscape="http://www.inkscape.org/namespaces/inkscape"
   xmlns:sodipodi="http://sodipodi.sourceforge.net/DTD/sodipodi-0.dtd"
   xmlns="http://www.w3.org/2000/svg"
   xmlns:svg="http://www.w3.org/2000/svg">
  <sodipodi:namedview
     id="namedview8"
     pagecolor="#ffffff"
     bordercolor="#666666"
     borderopacity="1.0"
     inkscape:pageshadow="2"
     inkscape:pageopacity="0.0"
     inkscape:pagecheckerboard="0"
     showgrid="false"
     inkscape:zoom="1.8545526"
     inkscape:cx="39.092986"
     inkscape:cy="226.46971"
     inkscape:window-width="1832"
     inkscape:window-height="837"
     inkscape:window-x="52"
     inkscape:window-y="378"
     inkscape:window-maximized="0"
     inkscape:current-layer="g8" />
  <defs
     id="defs6">
    <clipPath
       clipPathUnits="userSpaceOnUse"
       id="clipPath1057">
      <rect
         style="opacity:0.428307;fill:#ff13fb;stroke-width:30.2362;stroke-linecap:round;paint-order:markers stroke fill"
         id="rect1059"
         width="249.59814"
         height="250.39284"
         x="400.31693"
         y="449.77188"
         transform="rotate(-0.58123268)" />
    </clipPath>
  </defs>
  <g
     id="g8">
    <path
       id="rect1704"
       style="opacity:1;fill:#000000;fill-opacity:1;stroke:none;stroke-width:14.453;stroke-linecap:round;stroke-miterlimit:4;stroke-dasharray:none;stroke-opacity:1;paint-order:markers stroke fill"
       d="M 0,0 V 125.19727 250 H 250 V 0 H 124.79883 Z M 4,4 H 94.550781 C 91.155499,4.8579249 87.79771,5.8588104 84.486328,7 H 7 V 84.691406 C 5.8592449,88.012924 4.858359,91.38114 4,94.787109 Z M 156.01562,4 H 246 v 91.412109 c -0.85348,-3.46648 -1.85439,-6.894744 -3,-10.27539 V 7 h -77.11914 c -3.24582,-1.135877 -6.53704,-2.1367306 -9.86524,-3 z m -31.21679,0.0625 c 31.05969,0.00174 60.92424,12.010095 83.38672,33.529297 h -3.6211 C 182.7728,17.610569 154.32161,6.5247763 124.79883,6.5117188 95.346149,6.5755446 66.976215,17.657898 45.236328,37.591797 H 41.794922 C 64.161604,16.16405 93.871549,4.1627648 124.79883,4.0625 Z m 0,4.4042969 c 28.29706,0.010249 55.6207,10.3645021 76.85742,29.1250001 h -9.55273 C 172.81952,22.668435 149.15386,14.568132 124.79883,14.554688 100.53012,14.623824 76.96172,22.72115 57.746094,37.591797 H 47.988281 C 69.212879,18.841992 96.517917,8.4884757 124.79883,8.4667969 Z M 28.349609,10.220703 c 1.327764,7.192303 4.397822,13.266108 7.517579,19.65625 -1.531478,0.985652 -2.659442,2.487062 -3.179688,4.232422 -6.594145,-3.455278 -11.87036,-5.780988 -21.501953,-6.566406 3.54545,-9.131462 7.396682,-15.184821 17.164062,-17.322266 z m 192.722661,0 c 9.76738,2.137445 13.6186,8.190804 17.16406,17.322266 -9.6316,0.785418 -14.9078,3.111128 -21.50195,6.566406 -0.52025,-1.74536 -1.64821,-3.24677 -3.17969,-4.232422 3.11976,-6.390142 6.18982,-12.463947 7.51758,-19.65625 z m -172.177739,0.125 c 0,10e-7 -4.728518,3.787752 -6.205078,8.798828 -1.02937,3.493453 -1.699381,6.724468 -1.957031,9.560547 -0.24729,-0.02449 -0.495642,-0.03688 -0.744141,-0.03711 -0.844486,0.0062 -1.682066,0.152763 -2.478515,0.433593 C 36.548886,27.006508 34.789877,23.139309 34.001953,21 c -1.03239,-2.803067 -1.712891,-6.15625 -1.712891,-6.15625 3e-6,0 3.928706,-2.554916 8.279297,-3.416016 4.35059,-0.8611 8.326172,-1.082031 8.326172,-1.082031 z m 151.632809,0 c 0,0 3.97559,0.220931 8.32618,1.082031 4.35059,0.8611 8.27929,3.416016 8.27929,3.416016 0,0 -0.6805,3.353183 -1.71289,6.15625 -0.78792,2.139309 -2.54693,6.006508 -3.50781,8.101562 -0.79645,-0.28083 -1.63403,-0.427356 -2.47852,-0.433593 -0.2485,2.33e-4 -0.49685,0.01262 -0.74414,0.03711 -0.25765,-2.836079 -0.92766,-6.067094 -1.95703,-9.560547 -1.47656,-5.011076 -6.20508,-8.798827 -6.20508,-8.798828 z m -143.425778,1.138672 14.730469,0.445313 c -10.012178,4.711283 -19.355714,10.736701 -27.785156,17.917968 -0.593494,-0.373838 -1.234871,-0.671918 -1.914063,-0.871094 0.157562,-2.750955 0.862525,-6.439202 3.578126,-9.328124 4.751939,-5.055223 11.390626,-8.164063 11.390624,-8.164063 z m 135.218748,0 c 0,0 6.63869,3.10884 11.39063,8.164063 2.7156,2.888922 3.42056,6.577169 3.57812,9.328124 -0.62313,0.182739 -1.21147,0.45661 -1.76367,0.78711 -8.37442,-7.141608 -17.6526,-13.142085 -27.59375,-17.845703 z M 125,25.976562 224.02344,125 125,224.02344 25.976562,125 Z m -85.011719,4.625 c 0.891737,-1.02e-4 1.72527,0.222265 2.476563,0.587891 -0.587777,0.578193 -1.169837,1.162206 -1.746094,1.751953 -0.243166,-0.05345 -0.471235,-0.148504 -0.730469,-0.148437 -1.931362,5.8e-4 -3.496592,1.566685 -3.496093,3.498047 7.8e-5,0.262489 0.09549,0.494277 0.15039,0.740234 -0.587113,0.577555 -1.168521,1.160917 -1.74414,1.75 -0.370574,-0.755019 -0.597453,-1.592459 -0.597657,-2.490234 -3.66e-4,-3.141587 2.545913,-5.68874 5.6875,-5.689454 z m 169.445309,0 c 3.14159,7.14e-4 5.68787,2.547867 5.6875,5.689454 -1.7e-4,0.752195 -0.15457,1.465879 -0.41992,2.123046 -0.59882,-0.639178 -1.20432,-1.272026 -1.8164,-1.898437 0.005,-0.07827 0.0449,-0.145011 0.0449,-0.224609 5e-4,-1.931362 -1.56474,-3.497467 -3.4961,-3.498047 -0.13028,-3.4e-5 -0.24059,0.06037 -0.36718,0.07422 -0.65205,-0.590288 -1.31029,-1.173653 -1.97461,-1.75 0.71575,-0.324601 1.50469,-0.515721 2.34179,-0.515626 z M 17.599609,31.037109 c 0,0 3.220269,1.05477 6.980469,2.19336 2.530737,0.766308 5.625212,1.860665 7.816406,2.648437 -0.01349,0.13708 -0.0233,0.274501 -0.0293,0.41211 0.0041,0.286066 0.02433,0.571674 0.06055,0.855468 -2.115087,0.348861 -5.118848,0.920762 -8.130859,2.023438 -4.53983,1.662 -10.745875,5.481217 -12.953125,7.80664 0,0 -0.575066,-5.066259 1.490234,-8.878906 2.0653,-3.812648 4.765625,-7.060547 4.765625,-7.060547 z m 214.222661,0 c 0,0 2.70032,3.247899 4.76562,7.060547 2.0653,3.812647 1.49024,8.878906 1.49023,8.878906 -2.20724,-2.325423 -8.41329,-6.14464 -12.95312,-7.80664 -3.01201,-1.102676 -6.01577,-1.674577 -8.13086,-2.023438 0.0362,-0.283794 0.0564,-0.569402 0.0606,-0.855468 -0.006,-0.137609 -0.0158,-0.27503 -0.0293,-0.41211 2.19119,-0.787772 5.28568,-1.882129 7.81641,-2.648437 3.7602,-1.13859 6.98047,-2.19336 6.98047,-2.19336 z M 125,33.416016 c -2.51856,3.84e-4 -4.56016,2.041984 -4.56055,4.560546 -6.9e-4,2.519325 2.04123,4.562116 4.56055,4.5625 2.51932,-3.84e-4 4.56124,-2.043175 4.56055,-4.5625 C 129.56016,35.458 127.51856,33.4164 125,33.416016 Z m 0,2.179687 c 1.3149,2e-5 2.38084,1.065955 2.38086,2.380859 -2e-5,1.314904 -1.06596,2.38084 -2.38086,2.38086 -1.3149,-2e-5 -2.38084,-1.065956 -2.38086,-2.38086 2e-5,-1.314904 1.06596,-2.380839 2.38086,-2.380859 z m -92.152344,3.302735 c 0.165373,0.451675 0.432971,0.848814 0.677735,1.257812 -7.803664,8.452454 -14.406993,17.945027 -19.623047,28.208984 -1.211835,-3.066384 -2.443278,-6.68012 -2.523438,-8.929687 -0.28084,-7.881278 3.929689,-11.985279 8.386719,-15.328125 3.941434,-2.956137 9.481985,-4.453131 13.082031,-5.208984 z m 183.726564,0 c 3.60004,0.755853 9.14059,2.252847 13.08203,5.208984 4.45703,3.342846 8.66756,7.446847 8.38672,15.328125 -0.0754,2.116798 -1.19914,5.478162 -2.33985,8.423828 -5.23692,-10.195691 -11.84561,-19.621094 -19.64062,-28.011719 0.17056,-0.317299 0.3869,-0.608319 0.51172,-0.949218 z M 115.76367,41.076172 40.839844,116 l 1.474609,1.47266 74.923827,-74.923832 z m 18.28516,0 -1.47461,1.472656 74.92383,74.925782 L 208.97266,116 Z m -96.457033,0.732422 v 3.453125 C 17.649789,67.083171 6.5569604,95.593357 6.4902344,125.19727 c 0.067698,29.60256 11.1604596,58.11118 31.1015626,79.93164 v 3.45312 C 16.161302,186.13352 4.1528025,156.27975 4.0507812,125.19727 4.1518018,94.113436 16.160374,64.258081 37.591797,41.808594 Z m 174.816403,0.0293 c 21.27833,22.504996 33.14009,52.341157 33.14063,83.359376 -0.096,30.88856 -11.95099,60.57349 -33.14063,82.98437 v -3.45703 c 19.70149,-21.77792 30.64142,-50.11818 30.69922,-79.52734 C 243.09356,95.726783 232.15067,67.315532 212.4082,45.492188 Z M 41.960938,41.960938 h 61.845702 l -3.41016,3.410156 H 45.371094 v 55.025386 l -3.410156,3.41016 z m 104.232422,0 h 61.8457 v 61.845702 l -3.41015,-3.41016 V 45.371094 h -55.02539 z m -99.083985,5.148437 h 2.257813 c -0.741831,0.67291 -1.533203,1.274763 -2.257813,1.970703 z m 7.447266,0 h 3.296875 c -3.81405,3.05058 -7.365431,6.470479 -10.744141,10.105469 v -3.175782 c 2.38053,-2.447299 4.863826,-4.754877 7.447266,-6.929687 z m 9.058593,0 h 3.746094 c -7.4968,5.09982 -14.346363,11.268661 -20.251953,18.525391 v -3.40625 c 4.95101,-5.75558 10.520159,-10.764251 16.505859,-15.119141 z m 10.052735,0 h 4.361328 c -12.04272,6.59679 -22.737562,15.892711 -30.919922,27.800781 v -3.59375 c 7.34309,-9.97429 16.398304,-18.088901 26.558594,-24.207031 z m 11.992187,0 h 5.41211 c -15.7357,6.10596 -29.809479,16.750814 -39.792969,31.558594 -1.52236,2.25799 -2.895722,4.579007 -4.169922,6.935547 v -4.210938 c 0.78675,-1.3152 1.506034,-2.656383 2.371094,-3.939453 9.24757,-13.71625 21.937397,-23.87423 36.179687,-30.34375 z m 69.251954,0 h 5.34961 c 4.15807,1.92141 8.23837,4.086311 12.13281,6.712891 13.70021,9.24001 23.90931,21.862079 30.49609,36.037109 V 95.125 C 196.63184,79.50943 185.9371,65.569551 171.18359,55.619141 c -5.17676,-3.49143 -10.6426,-6.291886 -16.27148,-8.509766 z m 12.9668,0 h 4.20312 c 1.16026,0.71062 2.35358,1.335906 3.49024,2.103516 11.40194,7.69997 20.51501,17.617683 27.31835,28.783203 v 4.371094 c -6.79501,-12.23307 -16.31392,-23.101566 -28.5332,-31.353516 -2.10948,-1.42457 -4.28845,-2.680257 -6.47851,-3.904297 z m 10.58789,0 h 3.59375 c 8.11931,6.00662 15.08153,13.066706 20.83007,20.916016 v 3.742187 C 196.42717,62.340488 188.28676,53.925345 178.4668,47.109375 Z m 9.26953,0 h 3.44336 c 4.28174,3.66417 8.14517,7.675334 11.71093,11.896484 v 3.294922 c -4.43755,-5.52456 -9.51022,-10.607976 -15.15429,-15.191406 z m 8.45508,0 h 3.17382 c 1.17998,1.13356 2.40368,2.229233 3.52539,3.408203 V 53.8125 c -2.11656,-2.32743 -4.35956,-4.549785 -6.69921,-6.703125 z m -76.97657,0.789063 0.16211,0.15039 -1.50195,1.291016 0.10938,0.144531 0.0312,0.01953 C 118.17952,49.672216 124,55.713692 124,65.976562 h 2 c 0,-10.40809 6.03711,-16.535156 6.03711,-16.535156 l -1.25195,-1.542968 c 0,0 -2.83845,1.748133 -5.49024,1.871093 -0.0926,0.003 -0.17152,0.0049 -0.23047,0.0059 h -0.002 -0.004 c -0.0611,6.7e-4 -0.068,0.002 -0.0488,0.002 -0.008,0 -0.0139,1e-5 -0.0176,0 h -0.002 c -2.71991,-0.009 -5.77539,-1.878906 -5.77539,-1.878906 z m -81.623043,0.123046 v 9.769532 C 22.69632,77.09037 14.58038,100.78928 14.507812,125.19727 c 0.073,24.40732 8.188917,48.10547 23.083985,67.40429 v 9.76953 C 18.831187,181.06575 8.4653752,153.62476 8.4394531,125.19727 8.4648981,96.769103 18.830741,69.327327 37.591797,48.021484 Z m 81.873043,0.107422 0.0117,0.01172 -0.002,0.002 c -7.1e-4,-7.4e-4 -0.009,-0.01297 -0.01,-0.01367 z m 92.94336,0.279297 c 18.52779,21.264426 28.74225,48.546469 28.75,76.789067 -0.012,28.23654 -10.22618,55.51161 -28.75,76.77148 v -9.83984 c 14.65321,-19.22199 22.62062,-42.73314 22.68164,-66.93164 -0.0137,-24.27275 -7.98361,-47.867457 -22.68164,-67.148442 z M 97.044922,48.722656 93.705078,52.0625 C 78.736101,57.730385 65.345121,67.788471 55.884766,81.841797 52.418107,86.991491 49.755918,92.468134 47.669922,98.097656 l -0.560547,0.560547 v -5.125 c 1.92112,-4.44078 4.199826,-8.774624 6.978516,-12.902344 C 64.663134,64.921393 80.03618,54.183185 97.044922,48.722656 Z M 155.23242,51 c 4.82547,1.994916 9.52399,4.421266 13.98828,7.427734 13.64351,9.188176 23.58846,21.94543 29.68164,36.242188 l -4.43554,-4.435547 c -6.01315,-11.774687 -14.87981,-22.209843 -26.45899,-30.007813 -2.77024,-1.865613 -5.62665,-3.529031 -8.54883,-5 z m -33.59375,0.164062 c 1.02443,0.331761 2.13977,0.609752 3.34766,0.613282 0.0109,3e-5 0.0183,0 0.0234,0 h 0.002 0.004 c 0.0661,-3.2e-4 0.0782,-0.002 0.0606,-0.002 0.11994,-6.5e-4 0.21776,-0.0048 0.29688,-0.0078 h 0.008 0.008 c 1.06702,-0.0495 2.05215,-0.2988 2.9668,-0.59375 -1.16115,1.79883 -2.44912,4.14204 -3.35547,7.4375 -0.908,-3.30146 -2.19884,-5.648105 -3.36133,-7.447266 z m -34.580076,7.544922 -6.03125,6.03125 c -7.937075,5.214088 -14.97078,11.99597 -20.533203,20.273438 -0.157835,0.234875 -0.298392,0.476697 -0.453125,0.71289 l -5.904297,5.904297 c 1.348737,-2.670869 2.852753,-5.288654 4.55664,-7.824218 7.369433,-10.966485 17.228395,-19.401849 28.365235,-25.097657 z m 83.585936,7.703125 c 4.85972,3.823589 9.16594,8.145749 12.87109,12.869141 z m -54.42578,15.785157 -9.68164,5.808593 c 1.80698,1.80698 4.77599,3.743464 8.90625,5.808594 l -8.90625,5.226563 V 152.2832 c 4.7756,1.16164 9.48824,3.48581 14.13477,6.97071 l 21.68359,-11.81055 V 94.201172 c -12.51983,-3.09769 -21.23205,-7.099236 -26.13672,-12.003906 z m 2.51563,13.166015 c 0.12905,0.12907 0.32389,0.257649 0.58203,0.386719 0.38722,0.12911 0.64435,0.193359 0.77343,0.193359 v 36.978521 h 3.87305 V 97.492188 c 2.32327,0.903499 5.22604,1.743148 8.71094,2.517582 v 48.78906 l -6.19531,3.09765 c -2.83955,-2.5814 -6.25859,-4.38931 -10.25977,-5.42187 V 97.105469 Z m 56.29492,0.19336 -9.68164,5.808589 v 18.19922 l -3.8711,2.32227 V 97.492188 l -9.67968,5.808592 v 43.17383 c 4.90467,1.16164 9.61535,3.4858 14.13281,6.9707 l 18.97265,-10.06836 -2.51562,-3.29101 -10.8418,5.80859 c -2.71048,-2.45234 -6.06718,-4.19595 -10.06836,-5.22851 v -13.16407 l 3.8711,1.54883 v 5.8086 h 3.87304 v -4.45313 l 9.29297,-5.61523 -9.29297,-3.8711 v -17.03906 c 2.45234,1.41977 4.77652,2.38802 6.97071,2.9043 l 9.67968,-5.80664 c -3.61397,-0.90349 -7.22782,-2.711399 -10.84179,-5.421879 z M 81.027344,96.912109 61.279297,108.72266 v 37.75195 c 4.904676,1.16164 9.615348,3.4858 14.132812,6.9707 L 97.095703,141.63477 V 103.88086 C 90.25497,102.20295 84.899457,99.880729 81.027344,96.912109 Z m -6.195313,7.357421 v 30.58985 h 3.871094 v -28.46094 c 2.710478,1.29071 5.615201,2.38751 8.712891,3.29101 v 33.30078 l -6.195313,3.09766 c -2.83955,-2.5814 -6.260536,-4.38931 -10.261719,-5.42187 V 106.78516 Z M 38,120.41602 c -2.518558,3.9e-4 -4.560158,2.04198 -4.560547,4.56054 -6.93e-4,2.51932 2.041223,4.56211 4.560547,4.5625 2.519324,-3.9e-4 4.56124,-2.04318 4.560547,-4.5625 C 42.560158,122.458 40.518558,120.41641 38,120.41602 Z m 174,0 c -2.51856,3.8e-4 -4.56016,2.04198 -4.56055,4.56054 -6.9e-4,2.51932 2.04123,4.56212 4.56055,4.5625 2.51932,-3.8e-4 4.56124,-2.04318 4.56055,-4.5625 C 216.56016,122.458 214.51856,120.4164 212,120.41602 Z M 38,122.5957 c 1.314904,2e-5 2.380839,1.06596 2.380859,2.38086 -2e-5,1.3149 -1.065955,2.38084 -2.380859,2.38086 -1.314904,-2e-5 -2.380839,-1.06596 -2.380859,-2.38086 2e-5,-1.3149 1.065955,-2.38084 2.380859,-2.38086 z m 174,0 c 1.3149,2e-5 2.38084,1.06596 2.38086,2.38086 -2e-5,1.3149 -1.06596,2.38084 -2.38086,2.38086 -1.3149,-2e-5 -2.38084,-1.06596 -2.38086,-2.38086 2e-5,-1.3149 1.06596,-2.38084 2.38086,-2.38086 z m -169.685547,10.21485 -1.474609,1.47265 74.923826,74.92578 1.47461,-1.4746 z m 165.183597,0 -74.92383,74.92383 1.47461,1.4746 74.92383,-74.92578 z m -165.537112,13.38281 3.410156,3.41016 v 55.02539 h 55.025386 l 3.41016,3.41015 H 41.960938 Z m 166.078122,0 v 61.8457 h -61.8457 l 3.41016,-3.41015 h 55.02539 v -55.02539 z m -5.24804,5.24805 c -2.3357,8.39311 -5.93563,16.53569 -11.00782,24.06445 -8.02064,11.90521 -18.70313,21.08809 -30.75586,27.38476 h -5.09375 c 13.40774,-6.11052 25.35134,-15.68295 34.05079,-28.5957 4.15767,-6.17133 7.29338,-12.76673 9.52929,-19.57617 z m -155.681645,1.09765 c 5.39585,15.63179 15.508526,29.70555 30.035156,39.48047 6.315772,4.24986 13.108724,7.32704 20.111328,9.46875 l 1.402344,1.40234 h -4.234375 c -6.41988,-2.19248 -12.654344,-5.14338 -18.490234,-9.07031 -13.24464,-8.91228 -22.921969,-21.2948 -28.824219,-35.17578 z M 246,153.75 V 246 h -89.14648 c 3.14139,-0.87759 6.24729,-1.87836 9.31054,-3 H 243 v -78.38086 c 1.16224,-3.576 2.16326,-7.20272 3,-10.86914 z M 4,155.60547 c 0.8583591,3.40597 1.859245,6.77418 3,10.0957 V 243 h 76.433594 c 3.063254,1.12164 6.169154,2.12241 9.310547,3 H 4 Z m 48.228516,0.85547 4.490234,4.49023 c 5.425762,10.37879 13.339989,19.57114 23.597656,26.46094 2.261514,1.519 4.591575,2.87566 6.966797,4.10351 l 4.478516,4.47852 c -4.366875,-1.81815 -8.608624,-4.06714 -12.652344,-6.7832 -12.351652,-8.29627 -21.395084,-19.81397 -26.880859,-32.75 z m 141.412104,4.13086 c -1.7941,4.03945 -3.9311,7.97319 -6.46484,11.74023 -8.35705,12.42488 -19.83791,21.60634 -32.72851,27.45313 l 4.80468,-4.80469 c 10.20897,-5.66306 19.25003,-13.64379 26.1211,-23.85938 1.25762,-1.86977 2.40164,-3.78733 3.4707,-5.73242 z m 9.25,1.33593 v 5.10547 c -1.88401,3.98665 -3.97754,7.90387 -6.5039,11.64844 -6.65334,9.86157 -15.0451,17.93128 -24.47656,24.20898 h -4.04297 c 10.369,-6.3427 19.57518,-14.82303 26.72461,-25.41992 3.34554,-4.95876 6.10435,-10.17032 8.29882,-15.54297 z m -155.781245,4.67579 c 6.22853,11.75747 15.220922,22.18285 26.857422,30.02539 3.63068,2.44696 7.435727,4.4644 11.310547,6.26171 h -5.09375 c -2.52948,-1.34827 -5.009125,-2.83674 -7.427735,-4.46679 -10.8219,-7.29355 -19.366694,-16.7829 -25.646484,-27.46289 z m 155.781245,7.91015 v 4.19922 c -0.64612,1.04293 -1.20281,2.12057 -1.89453,3.14453 -5.50609,8.15086 -12.11521,15.17542 -19.5,21.0332 h -3.70898 c 8.15298,-6.05894 15.46246,-13.44637 21.4082,-22.24804 1.34817,-1.99574 2.52406,-4.06174 3.69531,-6.12891 z m -155.781245,2.875 c 6.18017,9.17581 14.063784,17.35139 23.683594,23.84375 0.89674,0.6052 1.843459,1.09048 2.755859,1.6582 h -4.158203 c -8.87418,-6.02309 -16.27084,-13.45681 -22.28125,-21.75585 z m -33.449219,4.19531 c 5.166655,10.27373 11.720544,19.78383 19.476563,28.26172 -0.08518,0.18508 -0.218663,0.34288 -0.289063,0.53516 -3.600046,-0.75585 -9.140597,-2.25285 -13.082031,-5.20898 -4.45703,-3.34285 -8.667559,-7.44685 -8.386719,-15.32813 0.07406,-2.07831 1.162672,-5.35294 2.28125,-8.25977 z m 222.169924,0.19532 c 1.09157,2.8586 2.14046,6.03185 2.21289,8.06445 0.28084,7.88128 -3.92969,11.98528 -8.38672,15.32813 -3.94144,2.95613 -9.48199,4.45313 -13.08203,5.20898 -0.0552,-0.15084 -0.1622,-0.27347 -0.22656,-0.41992 7.75204,-8.45286 14.30767,-17.93569 19.48242,-28.18164 z M 124,184.02344 c 0,10.25798 -5.81325,16.29688 -5.98242,16.4707 l -0.27539,0.17578 -0.42578,3.40039 1.96875,-2.0039 c 0.11153,-0.0677 3.03589,-1.83612 5.70507,-1.84375 0.003,-1e-5 0.0106,0 0.0195,0 -0.0389,0 -0.0229,9e-4 0.0488,0.002 0.0657,7.2e-4 0.1455,0.003 0.23633,0.006 2.65179,0.12296 5.49024,1.87109 5.49024,1.87109 l 1.25195,-1.54297 c 0,0 -6.03711,-6.12706 -6.03711,-16.53515 z m 78.89062,1.00586 v 3.59375 c -3.89741,5.23481 -8.21312,10.00205 -12.91601,14.26757 h -3.29492 c 6.01596,-5.18686 11.49486,-11.11786 16.21093,-17.86132 z m -155.781245,1.85937 c 4.75297,5.92846 10.339296,11.27378 16.597656,16.00195 h -3.591797 c -4.80053,-3.85801 -9.122379,-8.12468 -13.005859,-12.71093 z M 125,191.39062 c 0.90635,3.29545 2.19433,5.63674 3.35547,7.43555 -0.91465,-0.29494 -1.89978,-0.54427 -2.9668,-0.59375 h -0.008 -0.006 c -0.0828,-0.003 -0.17953,-0.007 -0.29297,-0.008 0.0316,3.4e-4 0.007,-0.002 -0.0723,-0.002 -0.005,0 -0.0125,-3e-5 -0.0234,0 -1.20783,0.003 -2.32327,0.2796 -3.34766,0.61132 1.16229,-1.79909 2.45357,-4.14279 3.36133,-7.44336 z m 77.89062,2.90626 v 3.4121 c -1.54856,1.80321 -3.18436,3.50329 -4.83593,5.18164 h -2.96485 c 2.74894,-2.68242 5.33426,-5.5709 7.80078,-8.59374 z m -155.781245,1.07421 c 2.40751,2.62549 4.953662,5.13957 7.669922,7.51953 h -3.175781 c -1.51655,-1.39384 -3.076621,-2.75217 -4.494141,-4.2246 z m -35.765625,6.93164 c 2.20725,2.32542 8.413295,6.14465 12.953125,7.80665 3.012011,1.10266 6.015772,1.67456 8.130859,2.02343 -0.03622,0.28379 -0.05644,0.56941 -0.06055,0.85547 0.006,0.13761 0.01581,0.27503 0.0293,0.41211 -2.191194,0.78778 -5.285669,1.88213 -7.816406,2.64844 -3.7602,1.13859 -6.980469,2.19336 -6.980469,2.19336 0,0 -2.700325,-3.2479 -4.765625,-7.06055 -2.0653,-3.81264 -1.490234,-8.87891 -1.490234,-8.87891 z m 226.73437,0 c 10e-6,0 0.57507,5.06627 -1.49023,8.87891 -2.0653,3.81265 -4.76562,7.06055 -4.76562,7.06055 0,0 -3.22027,-1.05477 -6.98047,-2.19336 -2.53073,-0.76631 -5.62522,-1.86066 -7.81641,-2.64844 0.0135,-0.13708 0.0233,-0.2745 0.0293,-0.41211 -0.004,-0.28606 -0.0243,-0.57168 -0.0606,-0.85547 2.11509,-0.34887 5.11885,-0.92078 8.13086,-2.02343 4.53983,-1.66201 10.74588,-5.48123 12.95312,-7.80665 z m -35.1875,0.41797 v 0.16992 h -0.16015 c 0.053,-0.0572 0.10727,-0.11262 0.16015,-0.16992 z M 125,207.41602 c -2.51856,3.8e-4 -4.56016,2.04198 -4.56055,4.56054 -6.9e-4,2.51932 2.04123,4.56212 4.56055,4.5625 2.51932,-3.8e-4 4.56124,-2.04318 4.56055,-4.5625 -3.9e-4,-2.51856 -2.04199,-4.56016 -4.56055,-4.56054 z m 0,2.17968 c 1.3149,2e-5 2.38084,1.06596 2.38086,2.38086 -2e-5,1.3149 -1.06596,2.38084 -2.38086,2.38086 -1.3149,-2e-5 -2.38084,-1.06596 -2.38086,-2.38086 2e-5,-1.3149 1.06596,-2.38084 2.38086,-2.38086 z m -90.416016,1.70313 c 0.647638,0.66419 1.302627,1.32113 1.964844,1.9707 0.141356,1.69116 1.457057,3.01016 3.146484,3.1582 0.648286,0.66421 1.303925,1.32115 1.966797,1.97071 -0.53251,0.16485 -1.087133,0.27936 -1.673828,0.27929 -3.141587,-7.1e-4 -5.687866,-2.54786 -5.6875,-5.68945 1.35e-4,-0.59238 0.11507,-1.15247 0.283203,-1.68945 z m 180.294926,0.13476 c 0.14213,0.49726 0.24206,1.01182 0.24218,1.55469 3.7e-4,3.14159 -2.54591,5.68874 -5.6875,5.68945 -0.53703,7e-5 -1.04652,-0.0973 -1.53906,-0.23632 0.69152,-0.67821 1.37516,-1.36445 2.05078,-2.0586 1.50657,-0.23121 2.65587,-1.3828 2.88281,-2.89062 0.69152,-0.67821 1.37517,-1.36445 2.05079,-2.0586 z M 41.40625,212.4082 h 3.441406 c 21.779643,20.16737 50.311801,31.39901 79.951174,31.47266 29.63937,-0.0737 58.17153,-11.30529 79.95117,-31.47266 h 3.44531 c -22.40332,21.66493 -52.27908,33.81703 -83.39648,33.92188 C 93.682783,246.22422 63.808597,234.0722 41.40625,212.4082 Z m 6.191406,0 h 9.691406 c 19.289062,15.10698 43.038648,23.34942 67.509768,23.42969 24.47112,-0.0803 48.2207,-8.32271 67.50976,-23.42969 H 202 c -21.26818,18.98142 -48.73461,29.4831 -77.20117,29.51758 C 96.332269,241.8913 68.865841,231.38962 47.597656,212.4082 Z M 32.6875,215.16992 c 0.520246,1.74536 1.64821,3.24676 3.179688,4.23242 -3.119757,6.39014 -6.189815,12.46394 -7.517579,19.65625 -9.76738,-2.13745 -13.618612,-8.1908 -17.164062,-17.32226 9.631593,-0.78542 14.907808,-3.11113 21.501953,-6.56641 z m 184.04688,0 c 6.59415,3.45528 11.87035,5.78099 21.50195,6.56641 -3.54546,9.13146 -7.39668,15.18481 -17.16406,17.32226 -1.32776,-7.19231 -4.39782,-13.26611 -7.51758,-19.65625 1.53148,-0.98566 2.65944,-2.48706 3.17969,-4.23242 z m -173.603521,4.6875 c 8.137801,6.97813 17.136818,12.87682 26.775391,17.55078 l -12.804688,0.38672 c 0,0 -6.638685,-3.10884 -11.390624,-8.16406 -2.715601,-2.88892 -3.420564,-6.57718 -3.578126,-9.32813 0.352614,-0.1034 0.666304,-0.29345 0.998047,-0.44531 z m 163.271481,0.0488 c 0.29712,0.13031 0.57333,0.30458 0.88672,0.39648 -0.15756,2.75095 -0.86252,6.43921 -3.57812,9.32813 -4.75194,5.05522 -11.39063,8.16406 -11.39063,8.16406 l -12.63867,-0.38086 c 9.61711,-4.66466 18.59742,-10.5487 26.7207,-17.50781 z M 37.509766,220.1777 c 0.796449,0.28083 1.634029,0.42736 2.478515,0.4336 0.248499,-2.3e-4 0.496851,-0.0126 0.744141,-0.0371 0.25765,2.83608 0.927661,6.0671 1.957031,9.56055 1.47656,5.01107 6.205078,8.79882 6.205078,8.79882 0,0 -3.975582,-0.22093 -8.326172,-1.08203 -4.350591,-0.8611 -8.279294,-3.41601 -8.279297,-3.41601 0,0 0.680501,-3.35318 1.712891,-6.15625 0.787924,-2.13931 2.546933,-6.00652 3.507813,-8.10157 z m 174.402344,0 c 0.96088,2.09505 2.71989,5.96226 3.50781,8.10157 1.03239,2.80307 1.71289,6.15625 1.71289,6.15625 0,0 -3.9287,2.55491 -8.27929,3.41601 -4.35059,0.8611 -8.32618,1.08203 -8.32618,1.08203 0,0 4.72852,-3.78775 6.20508,-8.79882 1.02937,-3.49345 1.69938,-6.72447 1.95703,-9.56055 0.24729,0.0245 0.49564,0.0369 0.74414,0.0371 0.84449,-0.006 1.68207,-0.15277 2.47852,-0.4336 z" />
  </g>
</svg>
