<?xml version="1.0" encoding="UTF-8" standalone="no"?>
<!-- Created with Inkscape (http://www.inkscape.org/) -->

<svg
   width="188.90788mm"
   height="24.672382mm"
   viewBox="0 0 188.90788 24.672382"
   version="1.1"
   id="svg5"
   xmlns="http://www.w3.org/2000/svg"
   xmlns:svg="http://www.w3.org/2000/svg">
  <defs
     id="defs2">
    <rect
       x="37.822105"
       y="164.81168"
       width="725.56549"
       height="738.49951"
       id="rect2960" />
    <rect
       x="37.822105"
       y="164.81168"
       width="725.56549"
       height="738.49951"
       id="rect4412" />
    <rect
       x="37.822105"
       y="164.81168"
       width="725.56549"
       height="738.49951"
       id="rect7652" />
  </defs>
  <g
     id="layer1"
     transform="translate(-10.007141,-45.156795)">
    <g
       aria-label="THE COWBOY COLLECTIVE"
       transform="matrix(1.0308805,0,0,1.0308805,-28.983095,-130.78497)"
       id="text2958"
       style="font-size:33.3333px;line-height:1.25;letter-spacing:0px;word-spacing:0px;white-space:pre;shape-inside:url(#rect2960)">
      <path
         d="m 37.905599,170.97135 c -0.06667,0 -0.08333,0.0167 -0.08333,0.0833 v 2.75 c 0,0.0667 0.01667,0.0833 0.08333,0.0833 h 2.416664 v 20.33332 c 0,0.0667 0.01667,0.0833 0.08333,0.0833 h 3.916663 c 0.06667,0 0.08333,-0.0167 0.08333,-0.0833 v -20.33332 h 2.416664 c 0.06667,0 0.08333,-0.0167 0.08333,-0.0833 v -2.75 c 0,-0.0667 -0.01667,-0.0833 -0.08333,-0.0833 z"
         style="font-weight:900;font-stretch:ultra-condensed;font-family:'MFEK Sans';-inkscape-font-specification:'MFEK Sans Heavy Ultra-Condensed'"
         id="path17208" />
      <path
         d="m 52.488888,170.97135 c -0.06667,0 -0.08333,0.0167 -0.08333,0.0833 v 9.99999 h -0.833332 v -9.99999 c 0,-0.0667 -0.01667,-0.0833 -0.08333,-0.0833 h -3.916663 c -0.06667,0 -0.08333,0.0167 -0.08333,0.0833 v 23.16665 c 0,0.0667 0.01667,0.0833 0.08333,0.0833 h 3.916663 c 0.06667,0 0.08333,-0.0167 0.08333,-0.0833 v -10.24999 h 0.833332 v 10.24999 c 0,0.0667 0.01667,0.0833 0.08333,0.0833 h 3.916662 c 0.06667,0 0.08333,-0.0167 0.08333,-0.0833 v -23.16665 c 0,-0.0667 -0.01667,-0.0833 -0.08333,-0.0833 z"
         style="font-weight:900;font-stretch:ultra-condensed;font-family:'MFEK Sans';-inkscape-font-specification:'MFEK Sans Heavy Ultra-Condensed'"
         id="path17210" />
      <path
         d="m 61.738825,181.47134 v -7.58333 h 2.416664 c 0.06667,0 0.08333,-0.0167 0.08333,-0.0833 v -2.75 c 0,-0.0667 -0.01667,-0.0833 -0.08333,-0.0833 h -6.41666 c -0.06667,0 -0.08333,0.0167 -0.08333,0.0833 v 23.16665 c 0,0.0667 0.01667,0.0833 0.08333,0.0833 h 6.583327 c 0.06667,0 0.08333,-0.0167 0.08333,-0.0833 v -2.75 c 0,-0.0667 -0.01667,-0.0833 -0.08333,-0.0833 h -2.583331 v -7.83333 h 1.416665 c 0.06667,0 0.08333,-0.0167 0.08333,-0.0833 v -1.91667 c 0,-0.0667 -0.01667,-0.0833 -0.08333,-0.0833 z"
         style="font-weight:900;font-stretch:ultra-condensed;font-family:'MFEK Sans';-inkscape-font-specification:'MFEK Sans Heavy Ultra-Condensed'"
         id="path17212" />
      <path
         d="m 78.155416,184.25467 c 0,-0.0667 -0.01667,-0.0833 -0.08333,-0.0833 h -3.083331 c -0.06667,0 -0.08333,0.0167 -0.08333,0.0833 0,5.68333 -0.1,7.01666 -0.716666,7.01666 -0.549999,0 -0.616666,-0.53333 -0.616666,-2.2 v -12.19999 c 0,-1.91666 0.03333,-2.86666 0.616666,-2.86666 0.666666,0 0.616666,1.48333 0.633333,5.86666 0,0.0667 0.03333,0.0667 0.1,0.0667 h 2.899997 c 0.06667,0 0.08333,0 0.08333,-0.0667 0,-1 -0.01667,-2.6 -0.01667,-3.46666 -0.01667,-3.65 -1.133333,-5.73333 -4.199996,-5.73333 -3.566664,0 -4.28333,2.43333 -4.28333,6.26666 V 188.488 c 0,3.99999 0.716666,6.11666 4.116663,6.11666 3.049997,0 4.516662,-1.93333 4.599996,-5.2 0.03333,-1.21666 0.01667,-3.86666 0.03333,-5.14999 z"
         style="font-weight:900;font-stretch:ultra-condensed;font-family:'MFEK Sans';-inkscape-font-specification:'MFEK Sans Heavy Ultra-Condensed'"
         id="path17214" />
      <path
         d="m 78.738707,188.32133 c 0,3.88333 0.783332,6.28333 4.799995,6.28333 4.016663,0 4.783329,-2.4 4.783329,-6.28333 v -11.38332 c 0,-3.88333 -0.766666,-6.23333 -4.783329,-6.23333 -4.016663,0 -4.799995,2.35 -4.799995,6.23333 z m 4.166663,1.58333 v -14.53332 c 0,-1.48333 0.183333,-1.86666 0.633332,-1.86666 0.45,0 0.616666,0.38333 0.616666,1.86666 v 14.53332 c 0,1.48334 -0.166666,1.86667 -0.616666,1.86667 -0.449999,0 -0.633332,-0.38333 -0.633332,-1.86667 z"
         style="font-weight:900;font-stretch:ultra-condensed;font-family:'MFEK Sans';-inkscape-font-specification:'MFEK Sans Heavy Ultra-Condensed'"
         id="path17216" />
      <path
         d="m 93.138632,186.05467 -0.65,-14.99999 c -0.01667,-0.05 -0.03333,-0.0833 -0.1,-0.0833 H 88.42197 c -0.06667,0 -0.06667,0.0333 -0.05,0.0833 l 2.149998,23.16665 c 0.01667,0.0667 0.05,0.0833 0.116666,0.0833 h 3.699997 c 0.06667,0 0.1,-0.0167 0.116666,-0.0833 l 1.116666,-12.66666 1.166665,12.66666 c 0.01667,0.0667 0.05,0.0833 0.1,0.0833 h 3.666662 c 0.0667,0 0.1,-0.0167 0.11667,-0.0833 l 2.23333,-23.16665 c 0.0167,-0.05 0.0167,-0.0833 -0.05,-0.0833 h -2.833331 c -0.06667,0 -0.1,0.0333 -0.116667,0.0833 l -0.983332,15.29999 -1.383332,-15.29999 c -0.01667,-0.05 -0.03333,-0.0833 -0.1,-0.0833 H 94.63863 c -0.06667,0 -0.1,0.0333 -0.116666,0.0833 z"
         style="font-weight:900;font-stretch:ultra-condensed;font-family:'MFEK Sans';-inkscape-font-specification:'MFEK Sans Heavy Ultra-Condensed'"
         id="path17218" />
      <path
         d="m 112.2219,189.40466 v -2.78333 c 0,-2.51666 -1.29999,-3.78333 -2.86666,-4.21666 1.41667,-0.46667 2.46667,-1.66666 2.46667,-4.08333 v -2.55 c 0,-3.24999 -1.25,-4.79999 -3.88333,-4.79999 h -4.91667 c -0.0667,0 -0.0833,0.0167 -0.0833,0.0833 v 23.16665 c 0,0.0667 0.0167,0.0833 0.0833,0.0833 h 5.08333 c 2.63333,0 4.11666,-1.4 4.11666,-4.9 z m -5.19999,-7.93332 v -7.58333 h 0.41667 c 0.46666,0 0.55,0.4 0.55,1.65 v 4.28333 c 0,1.25 -0.16667,1.65 -0.55,1.65 z m 0.5,2.08333 c 0.46667,0 0.53333,0.48333 0.53333,1.73333 v 4.38333 c 0,1.25 -0.0667,1.71667 -0.53333,1.71667 h -0.5 v -7.83333 z"
         style="font-weight:900;font-stretch:ultra-condensed;font-family:'MFEK Sans';-inkscape-font-specification:'MFEK Sans Heavy Ultra-Condensed'"
         id="path17220" />
      <path
         d="m 112.77188,188.32133 c 0,3.88333 0.78333,6.28333 4.79999,6.28333 4.01666,0 4.78333,-2.4 4.78333,-6.28333 v -11.38332 c 0,-3.88333 -0.76667,-6.23333 -4.78333,-6.23333 -4.01666,0 -4.79999,2.35 -4.79999,6.23333 z m 4.16666,1.58333 v -14.53332 c 0,-1.48333 0.18333,-1.86666 0.63333,-1.86666 0.45,0 0.61667,0.38333 0.61667,1.86666 v 14.53332 c 0,1.48334 -0.16667,1.86667 -0.61667,1.86667 -0.45,0 -0.63333,-0.38333 -0.63333,-1.86667 z"
         style="font-weight:900;font-stretch:ultra-condensed;font-family:'MFEK Sans';-inkscape-font-specification:'MFEK Sans Heavy Ultra-Condensed'"
         id="path17222" />
      <path
         d="m 130.2718,170.97135 c -0.0667,0 -0.1,0.0167 -0.13334,0.0833 l -1.28333,9.91666 -1.28333,-9.91666 c -0.0333,-0.0667 -0.0667,-0.0833 -0.13333,-0.0833 h -4.61667 c -0.0667,0 -0.0667,0.0167 -0.0333,0.0833 l 3.31666,12.83332 v 10.33333 c 0,0.0667 0.0167,0.0833 0.0833,0.0833 h 3.91666 c 0.0667,0 0.0833,-0.0167 0.0833,-0.0833 V 183.888 l 3.33333,-12.83332 c 0.0333,-0.0667 0.0333,-0.0833 -0.0333,-0.0833 z"
         style="font-weight:900;font-stretch:ultra-condensed;font-family:'MFEK Sans';-inkscape-font-specification:'MFEK Sans Heavy Ultra-Condensed'"
         id="path17224" />
      <path
         d="m 147.27169,184.25467 c 0,-0.0667 -0.0167,-0.0833 -0.0833,-0.0833 h -3.08333 c -0.0667,0 -0.0833,0.0167 -0.0833,0.0833 0,5.68333 -0.1,7.01666 -0.71666,7.01666 -0.55,0 -0.61667,-0.53333 -0.61667,-2.2 v -12.19999 c 0,-1.91666 0.0333,-2.86666 0.61667,-2.86666 0.66666,0 0.61666,1.48333 0.63333,5.86666 0,0.0667 0.0333,0.0667 0.1,0.0667 h 2.9 c 0.0667,0 0.0833,0 0.0833,-0.0667 0,-1 -0.0167,-2.6 -0.0167,-3.46666 -0.0167,-3.65 -1.13334,-5.73333 -4.2,-5.73333 -3.56666,0 -4.28333,2.43333 -4.28333,6.26666 V 188.488 c 0,3.99999 0.71667,6.11666 4.11666,6.11666 3.05,0 4.51667,-1.93333 4.6,-5.2 0.0333,-1.21666 0.0167,-3.86666 0.0333,-5.14999 z"
         style="font-weight:900;font-stretch:ultra-condensed;font-family:'MFEK Sans';-inkscape-font-specification:'MFEK Sans Heavy Ultra-Condensed'"
         id="path17226" />
      <path
         d="m 147.85498,188.32133 c 0,3.88333 0.78334,6.28333 4.8,6.28333 4.01666,0 4.78333,-2.4 4.78333,-6.28333 v -11.38332 c 0,-3.88333 -0.76667,-6.23333 -4.78333,-6.23333 -4.01666,0 -4.8,2.35 -4.8,6.23333 z m 4.16667,1.58333 v -14.53332 c 0,-1.48333 0.18333,-1.86666 0.63333,-1.86666 0.45,0 0.61666,0.38333 0.61666,1.86666 v 14.53332 c 0,1.48334 -0.16666,1.86667 -0.61666,1.86667 -0.45,0 -0.63333,-0.38333 -0.63333,-1.86667 z"
         style="font-weight:900;font-stretch:ultra-condensed;font-family:'MFEK Sans';-inkscape-font-specification:'MFEK Sans Heavy Ultra-Condensed'"
         id="path17228" />
      <path
         d="m 158.52157,170.97135 c -0.0667,0 -0.0833,0.0167 -0.0833,0.0833 v 23.16665 c 0,0.0667 0.0167,0.0833 0.0833,0.0833 h 6.91666 c 0.0667,0 0.0833,-0.0167 0.0833,-0.0833 v -2.75 c 0,-0.0667 -0.0167,-0.0833 -0.0833,-0.0833 h -2.91666 v -20.33332 c 0,-0.0667 -0.0167,-0.0833 -0.0833,-0.0833 z"
         style="font-weight:900;font-stretch:ultra-condensed;font-family:'MFEK Sans';-inkscape-font-specification:'MFEK Sans Heavy Ultra-Condensed'"
         id="path17230" />
      <path
         d="m 166.30488,170.97135 c -0.0667,0 -0.0833,0.0167 -0.0833,0.0833 v 23.16665 c 0,0.0667 0.0167,0.0833 0.0833,0.0833 h 6.91666 c 0.0667,0 0.0833,-0.0167 0.0833,-0.0833 v -2.75 c 0,-0.0667 -0.0167,-0.0833 -0.0833,-0.0833 h -2.91666 v -20.33332 c 0,-0.0667 -0.0167,-0.0833 -0.0833,-0.0833 z"
         style="font-weight:900;font-stretch:ultra-condensed;font-family:'MFEK Sans';-inkscape-font-specification:'MFEK Sans Heavy Ultra-Condensed'"
         id="path17232" />
      <path
         d="m 178.08819,181.47134 v -7.58333 h 2.41666 c 0.0667,0 0.0833,-0.0167 0.0833,-0.0833 v -2.75 c 0,-0.0667 -0.0167,-0.0833 -0.0833,-0.0833 h -6.41666 c -0.0667,0 -0.0833,0.0167 -0.0833,0.0833 v 23.16665 c 0,0.0667 0.0167,0.0833 0.0833,0.0833 h 6.58333 c 0.0667,0 0.0833,-0.0167 0.0833,-0.0833 v -2.75 c 0,-0.0667 -0.0167,-0.0833 -0.0833,-0.0833 h -2.58333 v -7.83333 h 1.41666 c 0.0667,0 0.0833,-0.0167 0.0833,-0.0833 v -1.91667 c 0,-0.0667 -0.0167,-0.0833 -0.0833,-0.0833 z"
         style="font-weight:900;font-stretch:ultra-condensed;font-family:'MFEK Sans';-inkscape-font-specification:'MFEK Sans Heavy Ultra-Condensed'"
         id="path17234" />
      <path
         d="m 189.92149,184.25467 c 0,-0.0667 -0.0167,-0.0833 -0.0833,-0.0833 h -3.08333 c -0.0667,0 -0.0833,0.0167 -0.0833,0.0833 0,5.68333 -0.1,7.01666 -0.71667,7.01666 -0.55,0 -0.61666,-0.53333 -0.61666,-2.2 v -12.19999 c 0,-1.91666 0.0333,-2.86666 0.61666,-2.86666 0.66667,0 0.61667,1.48333 0.63333,5.86666 0,0.0667 0.0333,0.0667 0.1,0.0667 h 2.9 c 0.0667,0 0.0833,0 0.0833,-0.0667 0,-1 -0.0167,-2.6 -0.0167,-3.46666 -0.0167,-3.65 -1.13333,-5.73333 -4.2,-5.73333 -3.56666,0 -4.28333,2.43333 -4.28333,6.26666 V 188.488 c 0,3.99999 0.71667,6.11666 4.11667,6.11666 3.04999,0 4.51666,-1.93333 4.59999,-5.2 0.0333,-1.21666 0.0167,-3.86666 0.0333,-5.14999 z"
         style="font-weight:900;font-stretch:ultra-condensed;font-family:'MFEK Sans';-inkscape-font-specification:'MFEK Sans Heavy Ultra-Condensed'"
         id="path17236" />
      <path
         d="m 190.17145,170.97135 c -0.0667,0 -0.0833,0.0167 -0.0833,0.0833 v 2.75 c 0,0.0667 0.0167,0.0833 0.0833,0.0833 h 2.41667 v 20.33332 c 0,0.0667 0.0167,0.0833 0.0833,0.0833 h 3.91666 c 0.0667,0 0.0833,-0.0167 0.0833,-0.0833 v -20.33332 h 2.41666 c 0.0667,0 0.0833,-0.0167 0.0833,-0.0833 v -2.75 c 0,-0.0667 -0.0167,-0.0833 -0.0833,-0.0833 z"
         style="font-weight:900;font-stretch:ultra-condensed;font-family:'MFEK Sans';-inkscape-font-specification:'MFEK Sans Heavy Ultra-Condensed'"
         id="path17238" />
      <path
         d="m 199.83807,170.97135 c -0.0667,0 -0.0833,0.0167 -0.0833,0.0833 v 23.16665 c 0,0.0667 0.0167,0.0833 0.0833,0.0833 h 3.91666 c 0.0667,0 0.0833,-0.0167 0.0833,-0.0833 v -23.16665 c 0,-0.0667 -0.0167,-0.0833 -0.0833,-0.0833 z"
         style="font-weight:900;font-stretch:ultra-condensed;font-family:'MFEK Sans';-inkscape-font-specification:'MFEK Sans Heavy Ultra-Condensed'"
         id="path17240" />
      <path
         d="m 209.28805,189.12133 -0.78333,-18.06665 c -0.0333,-0.0833 -0.0833,-0.0833 -0.11667,-0.0833 h -4.16666 c -0.0833,0 -0.05,0.0667 -0.05,0.0833 l 2.23333,23.16665 c 0.0167,0.0667 0.0667,0.0833 0.11666,0.0833 h 4.83333 c 0.0333,0 0.0667,-0.0167 0.1,-0.0833 l 2.5,-23.16665 c 0.0333,-0.0833 -0.0333,-0.0833 -0.0667,-0.0833 h -3.16666 c -0.0667,0 -0.0833,0.05 -0.1,0.0833 z"
         style="font-weight:900;font-stretch:ultra-condensed;font-family:'MFEK Sans';-inkscape-font-specification:'MFEK Sans Heavy Ultra-Condensed'"
         id="path17242" />
      <path
         d="m 218.40467,181.47134 v -7.58333 h 2.41666 c 0.0667,0 0.0833,-0.0167 0.0833,-0.0833 v -2.75 c 0,-0.0667 -0.0167,-0.0833 -0.0833,-0.0833 h -6.41666 c -0.0667,0 -0.0833,0.0167 -0.0833,0.0833 v 23.16665 c 0,0.0667 0.0167,0.0833 0.0833,0.0833 h 6.58333 c 0.0667,0 0.0833,-0.0167 0.0833,-0.0833 v -2.75 c 0,-0.0667 -0.0167,-0.0833 -0.0833,-0.0833 h -2.58333 v -7.83333 h 1.41666 c 0.0667,0 0.0833,-0.0167 0.0833,-0.0833 v -1.91667 c 0,-0.0667 -0.0167,-0.0833 -0.0833,-0.0833 z"
         style="font-weight:900;font-stretch:ultra-condensed;font-family:'MFEK Sans';-inkscape-font-specification:'MFEK Sans Heavy Ultra-Condensed'"
         id="path17244" />
    </g>
  </g>
</svg>
