<?xml version="1.0" encoding="UTF-8" standalone="no"?>
<!-- Created with Inkscape (http://www.inkscape.org/) -->

<svg
   width="188.90788mm"
   height="24.672382mm"
   viewBox="0 0 188.90788 24.672382"
   version="1.1"
   id="svg5"
   xmlns="http://www.w3.org/2000/svg"
   xmlns:svg="http://www.w3.org/2000/svg">
  <defs
     id="defs2">
    <rect
       x="37.822105"
       y="164.81168"
       width="725.56549"
       height="738.49951"
       id="rect2960" />
    <rect
       x="37.822105"
       y="164.81168"
       width="725.56549"
       height="738.49951"
       id="rect4412" />
    <rect
       x="37.822105"
       y="164.81168"
       width="725.56549"
       height="738.49951"
       id="rect7652" />
  </defs>
  <g
     id="layer1"
     transform="translate(-10.007141,-45.156795)">
    <g
       aria-label="OWEN EARL"
       transform="matrix(1.0308805,0,0,1.0124145,-23.162261,-127.41221)"
       id="text4410"
       style="font-size:33.3333px;line-height:1.25;letter-spacing:0px;word-spacing:0px;white-space:pre;shape-inside:url(#rect4412)">
      <path
         d="m 38.555598,185.088 c 0,5.8 3.48333,9.73333 10.516657,9.73333 7.01666,0 10.49999,-3.93333 10.49999,-9.73333 v -4.91666 c 0,-5.78333 -3.48333,-9.69999 -10.49999,-9.69999 -7.033327,0 -10.516657,3.91666 -10.516657,9.69999 z m 7.283327,0.51667 v -5.95 c 0,-2.83333 1.066665,-4.23333 3.23333,-4.23333 2.149998,0 3.216663,1.4 3.216663,4.23333 v 5.95 c 0,2.84999 -1.066665,4.24999 -3.216663,4.24999 -2.166665,0 -3.23333,-1.4 -3.23333,-4.24999 z"
         style="font-weight:900;font-stretch:semi-condensed;font-family:'MFEK Sans';-inkscape-font-specification:'MFEK Sans Heavy Semi-Condensed'"
         id="path17388" />
      <path
         d="m 68.372166,183.62134 -1.749998,-12.49999 c -0.01667,-0.1 -0.08333,-0.15 -0.183333,-0.15 h -6.933327 c -0.1,0 -0.116666,0.05 -0.1,0.15 l 4.533329,23.03331 c 0.01667,0.11667 0.08333,0.15 0.183333,0.15 h 5.866662 c 0.1,0 0.166666,-0.0333 0.183333,-0.15 l 2.849997,-11.16666 2.649997,11.16666 c 0.03333,0.11667 0.08333,0.15 0.183334,0.15 h 6.549993 c 0.1,0 0.166667,-0.0333 0.183334,-0.15 l 4.683328,-23.03331 c 0.01667,-0.1 0,-0.15 -0.1,-0.15 h -5.216661 c -0.1,0 -0.166667,0.05 -0.183333,0.15 l -2.116665,13.01665 -3.03333,-13.01665 c -0.01667,-0.1 -0.08333,-0.15 -0.183334,-0.15 h -5.066661 c -0.1,0 -0.166667,0.05 -0.183334,0.15 z"
         style="font-weight:900;font-stretch:semi-condensed;font-family:'MFEK Sans';-inkscape-font-specification:'MFEK Sans Heavy Semi-Condensed'"
         id="path17390" />
      <path
         d="m 94.555441,180.58801 v -4.51667 h 9.233329 c 0.1,0 0.15,-0.0333 0.15,-0.15 v -4.79999 c 0,-0.11667 -0.05,-0.15 -0.15,-0.15 H 87.555448 c -0.1,0 -0.15,0.0333 -0.15,0.15 v 23.03331 c 0,0.1 0.05,0.15 0.15,0.15 H 104.0721 c 0.11667,0 0.15,-0.05 0.15,-0.15 V 189.338 c 0,-0.1 -0.0333,-0.13334 -0.15,-0.13334 H 94.555441 V 184.238 h 5.233329 c 0.1,0 0.15,-0.0333 0.15,-0.15 v -3.34999 c 0,-0.1 -0.05,-0.15 -0.15,-0.15 z"
         style="font-weight:900;font-stretch:semi-condensed;font-family:'MFEK Sans';-inkscape-font-specification:'MFEK Sans Heavy Semi-Condensed'"
         id="path17392" />
      <path
         d="m 118.33873,170.97135 c -0.1,0 -0.15,0.0333 -0.15,0.15 V 183.238 l -4.18333,-12.11665 c -0.05,-0.13334 -0.13333,-0.15 -0.25,-0.15 h -8.26666 c -0.11667,0 -0.15,0.0333 -0.15,0.15 v 23.03331 c 0,0.1 0.0333,0.15 0.15,0.15 h 5.1 c 0.1,0 0.15,-0.05 0.15,-0.15 v -14.28332 l 5.63332,14.28332 c 0.05,0.13333 0.15,0.15 0.25,0.15 h 6.81666 c 0.1,0 0.15,-0.05 0.15,-0.15 v -23.03331 c 0,-0.11667 -0.05,-0.15 -0.15,-0.15 z"
         style="font-weight:900;font-stretch:semi-condensed;font-family:'MFEK Sans';-inkscape-font-specification:'MFEK Sans Heavy Semi-Condensed'"
         id="path17394" />
      <path
         d="m 140.50534,180.58801 v -4.51667 h 9.23332 c 0.1,0 0.15,-0.0333 0.15,-0.15 v -4.79999 c 0,-0.11667 -0.05,-0.15 -0.15,-0.15 h -16.23332 c -0.1,0 -0.15,0.0333 -0.15,0.15 v 23.03331 c 0,0.1 0.05,0.15 0.15,0.15 h 16.51665 c 0.11667,0 0.15,-0.05 0.15,-0.15 V 189.338 c 0,-0.1 -0.0333,-0.13334 -0.15,-0.13334 h -9.51665 V 184.238 h 5.23332 c 0.1,0 0.15,-0.0333 0.15,-0.15 v -3.34999 c 0,-0.1 -0.05,-0.15 -0.15,-0.15 z"
         style="font-weight:900;font-stretch:semi-condensed;font-family:'MFEK Sans';-inkscape-font-specification:'MFEK Sans Heavy Semi-Condensed'"
         id="path17396" />
      <path
         d="m 155.85529,194.15466 1.2,-4.86666 h 5.8 l 1.19999,4.86666 c 0.05,0.15 0.15,0.15 0.2,0.15 h 7.03333 c 0.15,0 0.11667,-0.1 0.1,-0.15 l -6.66666,-23.03331 c -0.0333,-0.11667 -0.1,-0.15 -0.18333,-0.15 h -7.46666 c -0.0667,0 -0.13333,0.0167 -0.18333,0.15 l -6.61667,23.03331 c -0.05,0.13333 0.05,0.15 0.1,0.15 h 5.3 c 0.11667,0 0.16667,-0.0833 0.18333,-0.15 z m 4.06667,-16.61665 2.01666,8.09999 h -4 z"
         style="font-weight:900;font-stretch:semi-condensed;font-family:'MFEK Sans';-inkscape-font-specification:'MFEK Sans Heavy Semi-Condensed'"
         id="path17398" />
      <path
         d="m 181.75525,170.97135 h -9.63332 c -0.1,0 -0.15,0.0333 -0.15,0.15 v 23.03331 c 0,0.1 0.05,0.15 0.15,0.15 h 6.84999 c 0.11667,0 0.15,-0.05 0.15,-0.15 v -8.44999 h 1.56667 c 1.44999,0 1.86666,0.55 1.86666,1.71666 v 2.1 c 0,1.4 0.2,3.23333 1.01667,4.65 0.0667,0.13333 0.11666,0.13333 0.23333,0.13333 h 7.23333 c 0.1,0 0.15,-0.05 0.15,-0.15 v -0.43333 c 0,-0.1 0,-0.13334 -0.11667,-0.3 -0.66667,-1 -1.08333,-2.23333 -1.08333,-3.9 v -1.81666 c 0,-2.6 -1.43334,-3.6 -4.01667,-3.98333 2.4,-0.86667 3.86667,-2.58333 3.86667,-5.05 v -1.4 c 0,-3.51666 -2.03333,-6.29999 -8.08333,-6.29999 z m -2.63333,5.09999 h 1.33333 c 1.73333,0 2.1,1.06667 2.1,2.23333 v 1.51667 c 0,1.31667 -0.36667,2.23333 -2.1,2.23333 h -1.33333 z"
         style="font-weight:900;font-stretch:semi-condensed;font-family:'MFEK Sans';-inkscape-font-specification:'MFEK Sans Heavy Semi-Condensed'"
         id="path17400" />
      <path
         d="m 192.37185,170.97135 c -0.1,0 -0.15,0.0333 -0.15,0.15 v 23.03331 c 0,0.1 0.05,0.15 0.15,0.15 h 14.59999 c 0.11666,0 0.15,-0.05 0.15,-0.15 V 189.338 c 0,-0.1 -0.0333,-0.13334 -0.15,-0.13334 h -7.6 v -18.08331 c 0,-0.11667 -0.0333,-0.15 -0.15,-0.15 z"
         style="font-weight:900;font-stretch:semi-condensed;font-family:'MFEK Sans';-inkscape-font-specification:'MFEK Sans Heavy Semi-Condensed'"
         id="path17402" />
    </g>
  </g>
</svg>
